<svg id="bear-walking-2" xmlns="http://www.w3.org/2000/svg" width="56.821" height="39.338" viewBox="0 0 56.821 39.338">
  <path id="Path_32" data-name="Path 32" d="M5.335,38.749a.562.562,0,0,1-.433.186.62.62,0,0,1-.619-.619c0-.124,0-.186.062-.247L5.892,32v-.124c0-.062.062-.124.124-.186h0l4.64-4.64a1.352,1.352,0,0,1,.309-.186l26.3-6.187h.309l4.455,1.485,3.774-1.3-.124-.557a.623.623,0,0,1,.371-.681l1.918-.742a.563.563,0,0,1,.681.186l.495.619.186-.062.928-1.176A.679.679,0,0,1,51,18.269l1.98.866a.6.6,0,0,1,.371.557v1.3L56.256,23.9a.562.562,0,0,1,.186.433v1.176l4.207,1.423a.619.619,0,0,1,.371.8L59.6,32.314a.531.531,0,0,1-.433.371l-10.58,3.032-1.176,2.289,5.63,2.846a.483.483,0,0,1,.247.247l4.764,7.734a.572.572,0,0,1-.124.742L54.833,52.67a.7.7,0,0,1-.495.186.521.521,0,0,1-.433-.247l-3.032-4.517-6.93-4.145-2.722,8.105L45.49,54.9a.626.626,0,0,1,.247.433.7.7,0,0,1-.186.495l-1.547,1.547a.562.562,0,0,1-.433.186H37.385a.627.627,0,0,1-.557-.371l-4.517-12H27.052l-1.361,6.806,4.269,2.846a.626.626,0,0,1,.247.433.7.7,0,0,1-.186.495L28.475,57.31a.562.562,0,0,1-.433.186h-.124l-7.734-1.547a.789.789,0,0,1-.433-.309L18.2,52.546a.372.372,0,0,1-.062-.247V47.6l-4.7,4.7,2.66,2.66a.6.6,0,0,1,0,.866l-1.547,1.547a.562.562,0,0,1-.433.186H11.027a.879.879,0,0,1-.371-.124l-6.187-4.64a.654.654,0,0,1-.124-.866l3.032-4.455L6.016,38.13ZM59.659,28.231l.124-.371-.619-.186v.433ZM51.615,47.04l.186.186,2.66,4.022,2.227-2.227L52.42,41.842l-5.568-2.784-2.413,3.65ZM33.3,44.255,37.818,56.2h5.507l.8-.8-4.022-2.66a.618.618,0,0,1-.247-.681l3.094-9.281a.061.061,0,0,1,.062-.062.061.061,0,0,1,.062-.062l3.094-4.579,1.237-2.66-2.784-2.042a.626.626,0,0,1-.247-.433l-.619-4.269a.6.6,0,0,1,1.176-.186L45.49,32.5l2.722,1.98,10.333-2.846.186-.495-2.351-.371a.509.509,0,0,1-.371-.247l-.928-1.176a.614.614,0,0,1,.928-.8l.8.99L59.1,29.9l.186-.557-.866-.124a.752.752,0,0,1-.495-.619V27.241L55.761,26.5a.594.594,0,0,1-.433-.557v-1.3L52.42,21.734a.562.562,0,0,1-.186-.433V20.187l-1.176-.495-.8.99a.854.854,0,0,1-.247.186l.124.124c.247.186.186.557-.062.8a.658.658,0,0,1-.866-.062l-.124-.186-.99-1.237-.99.371.247,1.423v.062a.679.679,0,0,1-.495.742h-.124a.6.6,0,0,1-.619-.495l-.062-.247-3.774,1.3a.394.394,0,0,1-.371,0L37.57,22.043l-6.93,5.012v9.219ZM19.442,52.113,20.8,54.836l7.115,1.423.8-.8L24.7,52.794a.588.588,0,0,1-.247-.619l1.423-6.992H20.618L19.5,46.359v5.754ZM7.068,36.707,8.614,47.473a.589.589,0,0,1-.124.433L5.706,52.051,11.275,56.2h2.66l.928-.928-2.66-2.66a.6.6,0,0,1,0-.866l6.187-6.187,1.423-1.485h0l4.207-4.517L23.154,33.3l-3.279-2.1a.626.626,0,1,1,.681-1.052l3.527,2.227a.626.626,0,0,1,.247.433l.99,6.868a.7.7,0,0,1-.186.495l-3.465,3.712H31.878L29.4,36.521c0-.062-.062-.124-.062-.186V26.684a.764.764,0,0,1,.247-.495l4.95-3.589L11.4,28.045,7.068,32.376Z" transform="translate(-4.237 -18.219)" fill="#faa825"/>
  <path id="Path_33" data-name="Path 33" d="M15.494,27.865l1.114-.619a.546.546,0,0,1,.8.247l.742,1.237a.626.626,0,0,1-.247.866.558.558,0,0,1-.309.062.738.738,0,0,1-.557-.309l-.433-.681-.619.309a.626.626,0,0,1-.866-.247A.659.659,0,0,1,15.494,27.865Z" transform="translate(31.884 -21.628)" fill="#faa825"/>
</svg>
