<svg xmlns="http://www.w3.org/2000/svg" xmlns:xlink="http://www.w3.org/1999/xlink" width="70" height="70" viewBox="0 0 70 70">
  <defs>
    <clipPath id="clip-path">
      <rect id="Rectangle_216" data-name="Rectangle 216" width="70" height="70" transform="translate(215 484)" fill="#fff" stroke="#707070" stroke-width="1"/>
    </clipPath>
  </defs>
  <g id="Mask_Group_15" data-name="Mask Group 15" transform="translate(-215 -484)" clip-path="url(#clip-path)">
    <path id="linkedIn-icon" d="M23.864,15.909a8,8,0,0,0-7.955,7.955V77.955a8,8,0,0,0,7.955,7.955H77.955a8,8,0,0,0,7.955-7.955V23.864a8,8,0,0,0-7.955-7.955Zm0,6.364H77.955a1.549,1.549,0,0,1,1.591,1.591V77.955a1.549,1.549,0,0,1-1.591,1.591H23.864a1.549,1.549,0,0,1-1.591-1.591V23.864A1.549,1.549,0,0,1,23.864,22.273Zm9.347,5.469a5.469,5.469,0,1,0,5.469,5.469A5.468,5.468,0,0,0,33.21,27.741ZM61.946,42.259a9.806,9.806,0,0,0-8.85,4.872h-.2V42.955H43.949V73.182H53.3V58.267c0-3.939.784-7.756,5.668-7.756,4.814,0,4.872,4.451,4.872,7.955V73.182h9.347v-16.6C73.182,48.444,71.45,42.259,61.946,42.259Zm-33.31.7V73.182h9.446V42.955Z" transform="translate(199.091 468.091)"/>
  </g>
</svg>
