<svg xmlns="http://www.w3.org/2000/svg" width="70" height="48.462" viewBox="0 0 70 48.462">
  <g id="bear-walking" transform="translate(-4.237 -18.219)">
    <path id="Path_110" data-name="Path 110" d="M72.885,43.51a.692.692,0,0,0,.534.229.764.764,0,0,0,.762-.762c0-.152,0-.229-.076-.3L72.2,35.2V35.05c0-.076-.076-.152-.152-.229h0L66.33,29.1a1.666,1.666,0,0,0-.381-.229L33.554,21.254h-.381l-5.488,1.829-4.65-1.6.152-.686a.768.768,0,0,0-.457-.838l-2.363-.915a.693.693,0,0,0-.838.229l-.61.762-.229-.076L17.548,18.51a.836.836,0,0,0-.915-.229l-2.439,1.067a.732.732,0,0,0-.457.686v1.6l-3.582,3.582a.692.692,0,0,0-.229.534V27.2L4.742,28.952a.763.763,0,0,0-.457.991l1.753,5.64a.654.654,0,0,0,.534.457l13.034,3.735,1.448,2.82L14.118,46.1a.6.6,0,0,0-.3.3L7.944,55.934a.705.705,0,0,0,.152.915l3.811,3.811a.866.866,0,0,0,.61.229.642.642,0,0,0,.534-.3l3.735-5.564,8.537-5.107L28.676,59.9,23.417,63.4a.772.772,0,0,0-.3.534.866.866,0,0,0,.229.61l1.906,1.906a.692.692,0,0,0,.534.229H33.4a.772.772,0,0,0,.686-.457l5.564-14.787h6.479l1.677,8.384-5.259,3.506a.772.772,0,0,0-.3.534.866.866,0,0,0,.229.61l1.906,1.906a.692.692,0,0,0,.534.229h.152L54.592,64.7a.972.972,0,0,0,.534-.381l1.906-3.811a.458.458,0,0,0,.076-.3V54.41L62.9,60.2,59.622,63.48a.737.737,0,0,0,0,1.067l1.906,1.906a.692.692,0,0,0,.534.229h3.811a1.083,1.083,0,0,0,.457-.152l7.622-5.717a.806.806,0,0,0,.152-1.067L70.37,54.258l1.677-11.51ZM5.962,30.553,5.81,30.1l.762-.229V30.4Zm9.909,23.171-.229.229-3.278,4.954L9.621,56.163l5.259-8.842,6.86-3.43,2.973,4.5Zm22.562-3.43L32.868,65H26.085l-.991-.991,4.954-3.278a.761.761,0,0,0,.3-.838L26.542,48.465a8615.875,8615.875,0,0,0-.152-.152l-3.811-5.64-1.524-3.278,3.43-2.515a.772.772,0,0,0,.3-.534l.762-5.259a.733.733,0,0,0-1.448-.229l-.686,4.954-3.354,2.439L7.334,34.745l-.229-.61,2.9-.457a.627.627,0,0,0,.457-.3L11.6,31.925a.756.756,0,0,0-1.143-.991l-.991,1.22-2.82.457-.229-.686,1.067-.152a.926.926,0,0,0,.61-.762V29.333l2.668-.915a.732.732,0,0,0,.534-.686v-1.6l3.582-3.582a.692.692,0,0,0,.229-.534V20.644l1.448-.61.991,1.22a1.052,1.052,0,0,0,.3.229l-.152.152c-.3.229-.229.686.076.991a.81.81,0,0,0,1.067-.076L19,22.321l1.22-1.524,1.22.457-.3,1.753v.076a.836.836,0,0,0,.61.915h.152a.742.742,0,0,0,.762-.61l.076-.3,4.65,1.6a.486.486,0,0,0,.457,0l5.336-1.753L41.71,29.1V40.461Zm17.074,9.68-1.677,3.354-8.766,1.753-.991-.991,4.954-3.278a.725.725,0,0,0,.3-.762l-1.753-8.613h6.479l1.372,1.448v7.089ZM70.751,40.995,68.845,54.258a.726.726,0,0,0,.152.534l3.43,5.107L65.568,65H62.29l-1.143-1.143,3.278-3.278a.737.737,0,0,0,0-1.067L56.8,51.895l-1.753-1.829h0L49.866,44.5l1.067-7.7,4.04-2.592a.772.772,0,1,0-.838-1.3L49.79,35.659a.772.772,0,0,0-.3.534l-1.22,8.461a.865.865,0,0,0,.229.61l4.268,4.573H40.186l3.049-9.07c0-.076.076-.152.076-.229V28.647a.941.941,0,0,0-.3-.61l-6.1-4.421,28.507,6.708,5.336,5.336Z" transform="translate(0 0)" fill="#faa825"/>
    <path id="Path_111" data-name="Path 111" d="M18.46,28.033l-1.379-.766a.676.676,0,0,0-1,.306l-.919,1.532a.775.775,0,0,0,.306,1.072.69.69,0,0,0,.383.077.914.914,0,0,0,.689-.383l.536-.842.766.383a.775.775,0,0,0,1.072-.306A.816.816,0,0,0,18.46,28.033Z" transform="translate(-2.533 -2.093)" fill="#faa825"/>
  </g>
</svg>
