<svg xmlns="http://www.w3.org/2000/svg" xmlns:xlink="http://www.w3.org/1999/xlink" width="600" height="463" viewBox="0 0 600 463">
  <defs>
    <clipPath id="clip-path">
      <rect id="Rectangle_9" data-name="Rectangle 9" width="600" height="463" transform="translate(615 80)" fill="#fff" stroke="#707070" stroke-width="1"/>
    </clipPath>
  </defs>
  <g id="Mask_Group_1" data-name="Mask Group 1" transform="translate(-615 -80)" clip-path="url(#clip-path)">
    <g id="undraw_web_developer_p3e5" transform="translate(615 100.94)">
      <path id="Path_1" data-name="Path 1" d="M574.055,478.973c-3.894,14.831-17.541,24.1-17.541,24.1s-7.332-14.777-3.438-29.608,17.541-24.1,17.541-24.1S577.949,464.142,574.055,478.973Z" transform="translate(-92.218 -87.31)" fill="#3f3d56"/>
      <path id="Path_2" data-name="Path 2" d="M568.624,477.547c-10.908,10.777-12.128,27.228-12.128,27.228s16.465-1.021,27.373-11.8S596,465.75,596,465.75,579.532,466.77,568.624,477.547Z" transform="translate(-92.694 -89.022)" fill="#f9a826"/>
      <path id="Path_3" data-name="Path 3" d="M126.561,417.019H147.1l50.622-19.809s35.949-14.673,33.014,13.206-8.07,65.3-8.07,65.3-16.14-7.337-24.944-5.136-2.935-44.753-2.935-44.753-71.9,34.482-78.5,30.08-8.07-35.215-8.07-35.215Z" transform="translate(-45.859 -81.458)" fill="#2f2e41"/>
      <path id="Path_4" data-name="Path 4" d="M126.561,417.019H147.1l50.622-19.809s35.949-14.673,33.014,13.206-8.07,65.3-8.07,65.3-16.14-7.337-24.944-5.136-2.935-44.753-2.935-44.753-71.9,34.482-78.5,30.08-8.07-35.215-8.07-35.215Z" transform="translate(-45.859 -81.458)" opacity="0.1"/>
      <path id="Path_5" data-name="Path 5" d="M162.692,347.944l24.86,35.719,57.959,48.421s53.557,12.472,46.22,21.276-52.089-8.8-52.089-8.8-66.763-48.421-68.964-52.089-26.411-38.15-26.411-38.15Z" transform="translate(-49.625 -76.714)" fill="#a0616a"/>
      <path id="Path_6" data-name="Path 6" d="M162.692,347.944l24.86,35.719,57.959,48.421s53.557,12.472,46.22,21.276-52.089-8.8-52.089-8.8-66.763-48.421-68.964-52.089-26.411-38.15-26.411-38.15Z" transform="translate(-49.625 -76.714)" opacity="0.1"/>
      <path id="Path_7" data-name="Path 7" d="M145.539,315.736l16.14,31.547s-3.668,15.407-9.537,16.874-30.813-19.075-30.813-19.075Z" transform="translate(-47.229 -73.349)" fill="#d0cde1"/>
      <path id="Path_8" data-name="Path 8" d="M145.539,315.736l16.14,31.547s-3.668,15.407-9.537,16.874-30.813-19.075-30.813-19.075Z" transform="translate(-47.229 -73.349)" opacity="0.1"/>
      <path id="Path_9" data-name="Path 9" d="M365.642,401.431,370.41,421.1a1.228,1.228,0,0,1-.024.664l-21.627,67.586a1.228,1.228,0,0,1-2.391-.236l-2.992-26.329a1.228,1.228,0,0,1,.053-.519l19.852-60.924a1.228,1.228,0,0,1,2.361.091Z" transform="translate(-70.427 -82.204)" fill="#2f2e41"/>
      <path id="Path_10" data-name="Path 10" d="M325.474,358.325l4.4,16.874L310.8,436.826l-4.4-19.075Z" transform="translate(-32.012 -37.437)" fill="#f2f2f2"/>
      <path id="Path_11" data-name="Path 11" d="M258.948,501.864c.734,2.2,76.3-.734,77.034-1.467a15.927,15.927,0,0,0,1.614-2.935c.69-1.467,1.321-2.935,1.321-2.935l-2.935-23.756-74.833-2.656s-1.871,20.131-2.252,29.346A22.031,22.031,0,0,0,258.948,501.864Z" transform="translate(-61.595 -89.269)" fill="#2f2e41"/>
      <path id="Path_12" data-name="Path 12" d="M292.068,429.6l1.467,20.542H260.521V429.6Z" transform="translate(-27.219 -44.884)" opacity="0.1"/>
      <path id="Path_13" data-name="Path 13" d="M246.007,436.968l.2-.039-.931,8.843H226.932v-8.8Z" transform="translate(-23.709 -45.649)" opacity="0.1"/>
      <path id="Path_14" data-name="Path 14" d="M258.948,505.288c.734,2.2,76.3-.734,77.034-1.467a15.927,15.927,0,0,0,1.614-2.935H258.9A22.02,22.02,0,0,0,258.948,505.288Z" transform="translate(-61.595 -92.693)" opacity="0.1"/>
      <circle id="Ellipse_1" data-name="Ellipse 1" cx="33.014" cy="33.014" r="33.014" transform="translate(76.3 166.087)" fill="#a0616a"/>
      <path id="Path_15" data-name="Path 15" d="M152.331,296.853s-11,19.075-13.206,29.346-33.014-20.542-33.014-20.542l-4.035-10.638s28.979-13.573,26.778-24.577S152.331,296.853,152.331,296.853Z" transform="translate(-45.217 -68.405)" fill="#a0616a"/>
      <path id="Path_16" data-name="Path 16" d="M160.64,364.071l30.08,39.617,71.9,53.557s52.089,11,40.351,19.075-45.487-7.336-45.487-7.336S184.85,430.1,169.443,413.96s-44.019-43.286-44.019-43.286Z" transform="translate(-47.657 -78.399)" fill="#a0616a"/>
      <path id="Path_17" data-name="Path 17" d="M112.072,432.355l8.8,13.939,52.542-16.53a41.311,41.311,0,0,1,34.4,4.15c9.171,5.777,15.04,14.948,1.834,28.521-26.412,27.145-44.019,12.472-44.019,12.472S76.856,516.725,62.183,496.183s-15.407-30.813-15.407-30.813S103.268,430.154,112.072,432.355Z" transform="translate(-39.44 -85.055)" fill="#2f2e41"/>
      <path id="Path_18" data-name="Path 18" d="M233.589,486.188s23.477,15.407-4.4,22.743S180.766,506,180.766,506s-24.211,0-24.211-12.472,8.07-13.939,8.07-13.939l24.944,3.668S219.65,475.184,233.589,486.188Z" transform="translate(-50.909 -90.467)" fill="#d0cde1"/>
      <path id="Path_19" data-name="Path 19" d="M182.639,253.46c2.247,1,4.475,2.187,6.918,2.478s5.225-.562,6.381-2.734a8.582,8.582,0,0,0,.725-3.881c.088-4.029-.2-8.384-2.756-11.5-1.625-1.984-4-3.235-5.678-5.171a24.436,24.436,0,0,1-2.87-4.69c-3.271-6.143-8.114-12.047-14.844-13.818a32.19,32.19,0,0,0-8.665-.662l-16.949.239a29.509,29.509,0,0,0-8.154.878c-5.455,1.649-9.428,6.237-13.065,10.624a66.444,66.444,0,0,0-7.493,10.342,36.287,36.287,0,0,0-4.3,17.78,16.635,16.635,0,0,0,.609,4.7,26.108,26.108,0,0,0,1.849,4.062c3.179,6.243,5.066,14.041,1.486,20.063,6.218-2.54,12.371-5.87,16.472-11.19,1.835-2.379,3.274-5.165,5.72-6.911s6.43-1.9,8,.665a7.169,7.169,0,0,1,.809,3.358,15.39,15.39,0,0,0,.927,5.667c.816,1.746,2.758,3.155,4.613,2.632,3.194-.9,2.888-5.8,5.349-8.029,1.868-1.691,4.751-1.368,7.151-2.136a10.613,10.613,0,0,0,6.091-6c.909-2.039.9-7.373,2.616-8.477C175.736,250.368,180.64,252.568,182.639,253.46Z" transform="translate(-46.242 -62.664)" fill="#2f2e41"/>
      <path id="Path_20" data-name="Path 20" d="M92.821,294.2a8.707,8.707,0,0,1,4.532.012c4.709,1.264,15.267,4.611,17.531,9.7,2.935,6.6,13.206,16.874,13.206,16.874s13.939,13.939,11,23.477-13.939,20.542-13.939,20.542,2.935,45.487-11.738,57.225S92.874,425.7,92.874,436.709,47.388,482.2,38.584,460.92c0,0,4.4-39.617,2.935-53.557C40.072,393.624,42.189,307.909,92.821,294.2Z" transform="translate(-38.584 -71.068)" fill="#d0cde1"/>
      <path id="Path_21" data-name="Path 21" d="M121.428,314.692s44.753,33.014,36.683,46.954c0,0-27.145,13.206-33.014,12.472s-28.613-26.412-34.482-28.613S81.811,303.687,121.428,314.692Z" transform="translate(-43.661 -73.038)" fill="#d0cde1"/>
      <circle id="Ellipse_2" data-name="Ellipse 2" cx="36.243" cy="36.243" r="36.243" transform="translate(241.471 96.16)" fill="#f2f2f2"/>
      <path id="Path_22" data-name="Path 22" d="M659.278,135.4h-203.1V92.9h203.1Zm-202.207-.895H658.382V93.8H457.071Z" transform="translate(-82.213 -50.068)" fill="#3f3d56"/>
      <rect id="Rectangle_10" data-name="Rectangle 10" width="202.206" height="41.604" transform="translate(360.095 51.334)" fill="#f9a826"/>
      <circle id="Ellipse_3" data-name="Ellipse 3" cx="3.132" cy="3.132" r="3.132" transform="translate(229.14 5.368)" fill="#f9a826"/>
      <circle id="Ellipse_4" data-name="Ellipse 4" cx="3.132" cy="3.132" r="3.132" transform="translate(239.876 5.368)" fill="#f9a826"/>
      <circle id="Ellipse_5" data-name="Ellipse 5" cx="3.132" cy="3.132" r="3.132" transform="translate(250.613 5.368)" fill="#f9a826"/>
      <path id="Path_23" data-name="Path 23" d="M664.637,290.223H287.963V45.07H664.638Zm-375.781-.895H663.743V45.965H288.858Z" transform="translate(-64.638 -45.07)" fill="#3f3d56"/>
      <rect id="Rectangle_11" data-name="Rectangle 11" width="375.781" height="0.895" transform="translate(223.772 13.571)" fill="#3f3d56"/>
      <path id="Path_24" data-name="Path 24" d="M298.535,56.225a3.579,3.579,0,1,1,3.579-3.579,3.579,3.579,0,0,1-3.579,3.579Zm0-6.263a2.684,2.684,0,1,0,2.684,2.684,2.684,2.684,0,0,0-2.684-2.684Z" transform="translate(-65.369 -45.488)" fill="#3f3d56"/>
      <path id="Path_25" data-name="Path 25" d="M310.524,56.225a3.579,3.579,0,1,1,3.579-3.579,3.579,3.579,0,0,1-3.579,3.579Zm0-6.263a2.684,2.684,0,1,0,2.684,2.684,2.684,2.684,0,0,0-2.684-2.684Z" transform="translate(-66.622 -45.488)" fill="#3f3d56"/>
      <path id="Path_26" data-name="Path 26" d="M322.514,56.225a3.579,3.579,0,1,1,3.579-3.579,3.579,3.579,0,0,1-3.579,3.579Zm0-6.263a2.684,2.684,0,1,0,2.684,2.684,2.684,2.684,0,0,0-2.684-2.684Z" transform="translate(-67.874 -45.488)" fill="#3f3d56"/>
      <rect id="Rectangle_12" data-name="Rectangle 12" width="0.895" height="231.034" transform="translate(341.305 14.018)" fill="#3f3d56"/>
      <rect id="Rectangle_13" data-name="Rectangle 13" width="65.762" height="8.947" transform="translate(384.029 127.609)" fill="#f2f2f2"/>
      <rect id="Rectangle_14" data-name="Rectangle 14" width="65.762" height="8.947" transform="translate(487.369 127.609)" fill="#f2f2f2"/>
      <path id="Path_27" data-name="Path 27" d="M537.569,191.914H470.913v-9.841h66.656Zm-65.762-.895h64.868v-8.052H471.808Z" transform="translate(-83.753 -59.384)" fill="#3f3d56"/>
      <rect id="Rectangle_15" data-name="Rectangle 15" width="65.762" height="8.947" transform="translate(384.029 196.949)" fill="#f2f2f2"/>
      <path id="Path_28" data-name="Path 28" d="M537.569,269.344H470.913V259.5h66.656Zm-65.762-.895h64.868V260.4H471.808Z" transform="translate(-83.753 -67.474)" fill="#3f3d56"/>
      <rect id="Rectangle_16" data-name="Rectangle 16" width="169.101" height="8.947" transform="translate(384.253 161.384)" fill="#f2f2f2"/>
      <path id="Path_29" data-name="Path 29" d="M641.161,230.629h-170v-9.841h170Zm-169.1-.894H640.265v-8.053H472.058Z" transform="translate(-83.779 -63.429)" fill="#3f3d56"/>
      <path id="Path_30" data-name="Path 30" d="M652.963,191.914H586.309v-9.841h66.653Zm-65.762-.895h64.867v-8.052H587.2Z" transform="translate(-95.809 -59.384)" fill="#3f3d56"/>
      <path id="Path_31" data-name="Path 31" d="M351.254,214.221a36.8,36.8,0,1,1,36.8-36.8,36.8,36.8,0,0,1-36.8,36.8Zm0-72.486a35.686,35.686,0,1,0,35.686,35.686,35.686,35.686,0,0,0-35.686-35.686Z" transform="translate(-67.406 -55.053)" fill="#3f3d56"/>
      <rect id="Rectangle_17" data-name="Rectangle 17" width="157.797" height="1.115" transform="translate(417.111 415.101)" fill="#3f3d56"/>
    </g>
  </g>
</svg>
