<svg xmlns="http://www.w3.org/2000/svg" xmlns:xlink="http://www.w3.org/1999/xlink" width="600" height="528.62" viewBox="0 0 600 528.62">
  <defs>
    <clipPath id="clip-path">
      <rect id="Rectangle_26" data-name="Rectangle 26" width="600" height="528.62" transform="translate(115 110)" fill="#fff"/>
    </clipPath>
  </defs>
  <g id="imagem" transform="translate(-115 -110)">
    <g id="Mask_Group_16" data-name="Mask Group 16" clip-path="url(#clip-path)">
      <g id="undraw_site_content_ihgn" transform="translate(115 110.002)">
        <path id="Path_160" data-name="Path 160" d="M135.3,138.591H17.071V60.825H125.746Z" fill="#efefef"/>
        <circle id="Ellipse_38" data-name="Ellipse 38" cx="10.748" cy="10.748" r="10.748" transform="translate(78.714 74.003)" fill="#3f3d56"/>
        <path id="Path_161" data-name="Path 161" d="M198.809,59.052c1.019-1.156,2.074-2.307,3.137-3.42l1.113,1.062c-1.049,1.1-2.091,2.234-3.1,3.375Z" transform="translate(-79.347 -20.202)" fill="#3f3d56"/>
        <path id="Path_162" data-name="Path 162" d="M208.755,49.069c2.35-2.085,4.815-4.1,7.326-5.978l.922,1.23c-2.478,1.856-4.909,3.84-7.228,5.9Zm15.123-11.327c2.66-1.667,5.423-3.243,8.213-4.685l.706,1.367c-2.752,1.422-5.478,2.977-8.1,4.621Zm16.785-8.672c2.894-1.2,5.878-2.3,8.87-3.268l.472,1.464c-2.953.952-5.9,2.037-8.752,3.224Zm18.33-4.307-.352-1.5c3.061-.72,6.183-1.321,9.28-1.788L268.151,23C265.1,23.459,262.014,24.052,258.994,24.762Zm18.428-2.771-.1-1.534c3.132-.21,6.311-.291,9.449-.241l-.024,1.538c-3.1-.049-6.232.031-9.323.238Zm18.632.3.152-1.53c3.125.31,6.276.756,9.367,1.325l-.278,1.513c-3.049-.562-6.158-1-9.24-1.308Zm57.638,202.633c2.456-1.881,4.866-3.891,7.163-5.973l1.033,1.14c-2.328,2.11-4.771,4.147-7.26,6.054Zm-39.3-199.258.4-1.484c3.029.821,6.063,1.78,9.018,2.848l-.523,1.446C320.375,27.421,317.382,26.475,314.394,25.665ZM367.5,212.407c2.115-2.262,4.162-4.64,6.085-7.069l1.206.955c-1.949,2.462-4.024,4.872-6.167,7.164Zm-35.575-180.4.64-1.4c2.855,1.307,5.691,2.748,8.429,4.284l-.752,1.341C337.541,34.718,334.742,33.3,331.925,32.007ZM379.07,197.794c1.718-2.579,3.35-5.26,4.85-7.969l1.345.745c-1.521,2.746-3.174,5.463-4.915,8.076ZM348.184,41.125l.859-1.275c2.6,1.754,5.165,3.638,7.616,5.6l-.961,1.2C353.28,44.715,350.752,42.856,348.184,41.125ZM388.1,181.487c1.274-2.824,2.446-5.736,3.484-8.654l1.449.515c-1.052,2.958-2.24,5.908-3.531,8.771ZM362.732,52.772l1.056-1.117c2.282,2.158,4.5,4.435,6.594,6.769l-1.145,1.027C367.173,57.148,364.984,54.9,362.732,52.772Zm31.616,111.15c.8-3,1.474-6.063,2.017-9.109l1.514.27c-.551,3.087-1.239,6.193-2.045,9.233Zm-19.179-97.28,1.226-.929c1.895,2.5,3.707,5.112,5.387,7.76l-1.3.824C378.826,71.685,377.038,69.109,375.169,66.642Zm22.454,78.927c.29-3.083.453-6.217.486-9.317l1.538.017c-.033,3.141-.2,6.318-.492,9.444Zm-12.476-63.2,1.362-.713c1.454,2.777,2.811,5.654,4.034,8.548l-1.417.6c-1.207-2.855-2.545-5.693-3.98-8.433Zm12.673,44.556c-.223-3.083-.579-6.2-1.058-9.267l1.52-.237c.485,3.107.846,6.268,1.072,9.393ZM392.4,99.538l1.461-.48c.979,2.977,1.85,6.046,2.584,9.093l-1.5.36c-.724-3.009-1.584-6.035-2.55-8.973Z" transform="translate(-79.347 -20.202)" fill="#3f3d56"/>
        <path id="Path_163" data-name="Path 163" d="M342.052,232.738c1.313-.767,2.628-1.572,3.908-2.392l.83,1.295c-1.3.831-2.631,1.647-3.962,2.424Z" transform="translate(-79.347 -20.202)" fill="#3f3d56"/>
        <path id="Path_164" data-name="Path 164" d="M17.071,114.273,40.633,90.711,61.96,112.037l40.464-40.464L135.616,105.4v33.193H17.071Z" fill="#f9a826"/>
        <path id="Path_165" data-name="Path 165" d="M482.086,351V503.367h196V351Zm170.4,40.748h-15.18v-15.18h15.18Z" transform="translate(-79.347 -20.202)" fill="#3f3d56"/>
        <rect id="Rectangle_244" data-name="Rectangle 244" width="12.645" height="16.438" transform="translate(85.353 270.73)" fill="#3f3d56"/>
        <rect id="Rectangle_245" data-name="Rectangle 245" width="12.645" height="16.438" transform="translate(287.115 370.461) rotate(45)" fill="#3f3d56"/>
        <rect id="Rectangle_246" data-name="Rectangle 246" width="12.645" height="16.438" transform="translate(249.814 83.421) rotate(45)" fill="#3f3d56"/>
        <path id="Path_166" data-name="Path 166" d="M496.63,454.205c-.7,1.373-1.436,2.75-2.189,4.092l-1.342-.752c.744-1.325,1.471-2.683,2.161-4.038Z" transform="translate(-79.347 -20.202)" fill="#3f3d56"/>
        <path id="Path_167" data-name="Path 167" d="M489.475,466.346c-1.758,2.6-3.647,5.164-5.612,7.61l-1.2-.963c1.939-2.413,3.8-4.939,5.536-7.508Zm-11.836,14.728c-2.163,2.275-4.448,4.488-6.792,6.578l-1.024-1.148c2.313-2.061,4.567-4.244,6.7-6.489Zm-14.106,12.57c-2.5,1.884-5.122,3.69-7.78,5.369l-.821-1.3c2.624-1.656,5.206-3.438,7.677-5.3Zm-16.687,8.724.713,1.362c-2.786,1.458-5.661,2.816-8.546,4.037l-.6-1.417C441.261,505.146,444.1,503.807,446.847,502.368Zm-17.162,7.261.481,1.461c-2.982.981-6.041,1.849-9.093,2.58l-.359-1.5c3.012-.721,6.03-1.578,8.972-2.546Zm-18.123,4.338.233,1.52c-3.1.475-6.267.826-9.4,1.043L402.287,515c3.093-.213,6.213-.559,9.276-1.028ZM305.4,332c-1.912,2.432-3.747,4.977-5.455,7.564l-1.284-.847c1.731-2.622,3.591-5.2,5.529-7.667ZM392.96,515.253l-.021,1.538c-3.138-.043-6.315-.218-9.443-.52l.148-1.531C386.729,515.038,389.864,515.211,392.96,515.253Zm-97.823-167.7c-1.487,2.716-2.879,5.528-4.138,8.358l-1.405-.625c1.277-2.869,2.688-5.719,4.195-8.471ZM374.4,513.465l-.273,1.514c-3.09-.557-6.195-1.249-9.228-2.056l.4-1.486c2.994.8,6.057,1.479,9.106,2.028ZM287.559,364.581c-1.024,2.924-1.939,5.927-2.719,8.924l-1.488-.388c.791-3.037,1.718-6.08,2.755-9.044ZM356.387,508.67l-.516,1.448c-2.957-1.053-5.907-2.241-8.768-3.533l.633-1.4C350.56,506.458,353.47,507.631,356.387,508.67ZM282.86,382.62c-.533,3.052-.945,6.164-1.226,9.248l-1.532-.139c.285-3.126.7-6.28,1.242-9.373ZM339.4,501l-.746,1.345c-2.747-1.523-5.461-3.178-8.069-4.919l.854-1.279C334.015,497.865,336.693,499.5,339.4,501Zm-58.23-99.815c-.026,3.1.078,6.239.308,9.324l-1.534.114c-.233-3.127-.338-6.307-.312-9.451Zm42.739,89.469-.957,1.2c-2.457-1.953-4.861-4.031-7.146-6.179l1.053-1.12c2.254,2.118,4.625,4.169,7.048,6.1Zm-41.353-70.877c.485,3.058,1.105,6.135,1.843,9.145l-1.493.366c-.748-3.051-1.377-6.17-1.869-9.27Zm27.78,58.118-1.143,1.029c-2.1-2.329-4.128-4.778-6.031-7.278l1.224-.931C306.267,473.182,308.268,475.6,310.338,477.9ZM287,437.884c.982,2.931,2.1,5.863,3.326,8.714l-1.413.607c-1.242-2.89-2.376-5.861-3.371-8.832Zm12.054,25.185-1.3.828c-1.688-2.641-3.294-5.4-4.762-8.167l1.359-.72C295.8,457.744,297.386,460.462,299.051,463.068Z" transform="translate(-79.347 -20.202)" fill="#3f3d56"/>
        <path id="Path_168" data-name="Path 168" d="M314.738,321.538c-1.081,1.069-2.155,2.175-3.192,3.288l-1.125-1.048c1.051-1.128,2.14-2.249,3.236-3.332Z" transform="translate(-79.347 -20.202)" fill="#3f3d56"/>
        <path id="Path_169" data-name="Path 169" d="M648.462,358.912c-.145-.237-3.566-5.95-4.752-17.812-1.088-10.883-.388-29.227,9.125-54.814,18.023-48.475-4.153-87.587-4.38-87.976l1.094-.635c.057.1,5.78,10.071,9.16,25.95a113.211,113.211,0,0,1-4.689,63.1c-17.992,48.392-4.616,71.3-4.479,71.526Z" transform="translate(-79.347 -20.202)" fill="#3f3d56"/>
        <circle id="Ellipse_39" data-name="Ellipse 39" cx="8.219" cy="8.219" r="8.219" transform="translate(553.846 158.823)" fill="#f9a826"/>
        <circle id="Ellipse_40" data-name="Ellipse 40" cx="8.219" cy="8.219" r="8.219" transform="translate(579.768 189.171)" fill="#3f3d56"/>
        <circle id="Ellipse_41" data-name="Ellipse 41" cx="8.219" cy="8.219" r="8.219" transform="translate(562.065 209.403)" fill="#f9a826"/>
        <circle id="Ellipse_42" data-name="Ellipse 42" cx="8.219" cy="8.219" r="8.219" transform="translate(583.562 226.473)" fill="#f9a826"/>
        <circle id="Ellipse_43" data-name="Ellipse 43" cx="8.219" cy="8.219" r="8.219" transform="translate(555.743 253.027)" fill="#3f3d56"/>
        <path id="Path_170" data-name="Path 170" d="M653.425,359.215s-8.219-20.232,16.438-35.406Z" transform="translate(-79.347 -20.202)" fill="#3f3d56"/>
        <path id="Path_171" data-name="Path 171" d="M643.315,358.847s-3.741-21.515-32.692-21.33Z" transform="translate(-79.347 -20.202)" fill="#3f3d56"/>
        <path id="Path_172" data-name="Path 172" d="M381.865,487.3a7.587,7.587,0,1,1,7.587-7.587A7.587,7.587,0,0,1,381.865,487.3Zm0-13.909a6.322,6.322,0,1,0,6.322,6.322,6.322,6.322,0,0,0-6.322-6.322Z" transform="translate(-79.347 -20.202)" fill="#2f2e41"/>
        <path id="Path_173" data-name="Path 173" d="M465.212,80.323H452.731V67.842h12.481Zm-11.521-.96h10.561V68.8H453.691Z" transform="translate(-79.347 -20.202)" fill="#3f3d56"/>
        <path id="Path_174" data-name="Path 174" d="M124.84,428.74l-8.513-9.127,9.127-8.513,8.513,9.127Zm-7.156-9.08,7.2,7.723,7.723-7.2-7.2-7.723Z" transform="translate(-79.347 -20.202)" fill="#2f2e41"/>
        <path id="Path_175" data-name="Path 175" d="M380.676,325.818H154.448V234.5H342.626Z" fill="#efefef"/>
        <path id="Path_176" data-name="Path 176" d="M461.057,346.711H206.122V234.635h208.7l.176.428Zm-253.551-1.384H458.989L413.9,236.019H207.506Z" transform="translate(-79.347 -20.202)" fill="#3f3d56"/>
        <rect id="Rectangle_247" data-name="Rectangle 247" width="112.768" height="10.377" transform="translate(191.807 249.025)" fill="#f9a826"/>
        <rect id="Rectangle_248" data-name="Rectangle 248" width="112.768" height="10.377" transform="translate(191.807 270.472)" fill="#f9a826"/>
        <rect id="Rectangle_249" data-name="Rectangle 249" width="112.768" height="10.377" transform="translate(191.807 291.918)" fill="#f9a826"/>
        <path id="Path_177" data-name="Path 177" d="M268.661,173.967H79.347V58.9H226.469l.152.415ZM80.611,172.7H266.85L225.586,60.163H80.611Z" transform="translate(-79.347 -20.202)" fill="#3f3d56"/>
        <path id="Path_178" data-name="Path 178" d="M215.279,159.426H95.785V70.279H215.279ZM97.05,158.161H214.015V71.544H97.05Z" transform="translate(-79.347 -20.202)" fill="#3f3d56"/>
        <circle id="Ellipse_44" data-name="Ellipse 44" cx="11.38" cy="11.38" r="11.38" transform="translate(177.028 141.752)" fill="#f9a826"/>
        <circle id="Ellipse_45" data-name="Ellipse 45" cx="11.38" cy="11.38" r="11.38" transform="translate(367.966 314.987)" fill="#f9a826"/>
        <circle id="Ellipse_46" data-name="Ellipse 46" cx="19.15" cy="19.15" r="19.15" transform="translate(441.807 132.426)" fill="#a0616a"/>
        <path id="Path_179" data-name="Path 179" d="M527.138,180.953s6.383,14.362-2.394,19.948,14.362,28.725,14.362,28.725L564.639,202.5s-13.564-8.777-11.171-23.139Z" transform="translate(-79.347 -20.202)" fill="#a0616a"/>
        <path id="Path_180" data-name="Path 180" d="M483.253,241.594l-5.585,31.916s-9.575,19.15-9.575,35.906-1.6,19.948-1.6,19.948-15.958,31.916-4.787,33.512,15.958-32.714,15.958-32.714,15.16-37.5,15.16-49.47L503.2,254.36Z" transform="translate(-79.347 -20.202)" fill="#a0616a"/>
        <path id="Path_181" data-name="Path 181" d="M598.949,243.19l1.6,27.927s5.585,14.362,1.6,39.9l-3.192,24.735s7.181,27.927,0,28.725-15.958-17.554-11.171-27.927v-8.777s-4.787-37.5-3.192-43.885L579,253.563Z" transform="translate(-79.347 -20.202)" fill="#a0616a"/>
        <path id="Path_182" data-name="Path 182" d="M415.875,444.007l7.979,20.745,17.554-3.192-11.17-22.341Z" fill="#a0616a"/>
        <path id="Path_183" data-name="Path 183" d="M491.676,460.763l-2.394,30.321h19.947l-.8-26.331Z" fill="#a0616a"/>
        <path id="Path_184" data-name="Path 184" d="M507.988,299.043l-2.394,11.969s-4.787,3.99-4.787,7.979-1.6,5.585-1.6,5.585-.8,0-1.6,1.6a9.871,9.871,0,0,1-1.6,2.394s-47.076,47.874-36.7,71.811,30.32,72.609,30.32,72.609,23.139-7.181,23.139-12.766l-22.341-63.034,44.682-46.278,35.906,48.672s-7.181,85.376-2.394,86.174,31.118,6.383,31.916,3.99,4.787-108.515,3.192-112.5S579,325.374,579,325.374s3.99-4.787,1.6-6.383-6.383-16.756-6.383-16.756S511.978,291.862,507.988,299.043Z" transform="translate(-79.347 -20.202)" fill="#2f2e41"/>
        <path id="Path_185" data-name="Path 185" d="M542.3,209.678l-16.083-9.919s-9.45.344-11.844,2.738-16.756,8.777-16.756,8.777,3.192,95.748,9.575,92.557,1.6-5.585,6.383-3.192,61.438,3.192,62.236,3.192,1.6-1.6,1.6-1.6l3.192-48.672,10.373-40.693-30.709-14.13Z" transform="translate(-79.347 -20.202)" fill="#d0cde1"/>
        <path id="Path_186" data-name="Path 186" d="M504,210.475h-6.383s-8.777,2.394-12.766,15.16-5.585,18.352-3.989,19.948S504,259.148,504,259.148Z" transform="translate(-79.347 -20.202)" fill="#d0cde1"/>
        <path id="Path_187" data-name="Path 187" d="M579.8,212.071l11.171.8s14.362,33.512,10.373,35.108-27.129,13.564-27.129,11.171S579.8,212.071,579.8,212.071Z" transform="translate(-79.347 -20.202)" fill="#d0cde1"/>
        <path id="Path_188" data-name="Path 188" d="M504.8,474.581l-6.506-2.394-15.037,19.948s-27.927,19.948-2.394,19.15c0,0,19.948-3.192,21.543-8.777,0,0,23.139-6.383,23.139-10.373s-5.318-14.625-7.047-14.893S509.584,480.167,504.8,474.581Z" transform="translate(-79.347 -20.202)" fill="#2f2e41"/>
        <path id="Path_189" data-name="Path 189" d="M588.576,502.508s-19.4-.315-19.274.241-5.461,13.323-4.663,18.111,7.979,11.171,6.383,14.362,4.787,12.766,17.554,13.564,11.171-13.564,11.171-13.564l-6.383-15.16Z" transform="translate(-79.347 -20.202)" fill="#2f2e41"/>
        <path id="Path_190" data-name="Path 190" d="M528.562,149.612a36.265,36.265,0,0,1-3,2.292,28.479,28.479,0,0,0-3.611,3.587l-1.235,1.382c-1.051,1.176-2.166,2.519-2.121,4.1.016.585.2,1.153.267,1.734.279,2.3-1.129,4.838.03,6.85.335.582.854,1.036,1.224,1.6a3.732,3.732,0,0,1,.59,2.43,2.983,2.983,0,0,0,2.659-2.25,22.685,22.685,0,0,0,.528-3.7,3.965,3.965,0,0,1,1.845-3.087c2.39-1.171,5.134,1.873,7.685,1.115,1.781-.53,2.72-2.738,4.541-3.108,1.3-.265,2.558.509,3.769,1.058s2.844.8,3.7-.214c.567-.674.628-1.753,1.38-2.211.9-.549,2.03.215,2.713,1.02s1.436,1.789,2.491,1.76c1.4-.039,2.471-1.9,3.8-1.46,1.5.5.81,2.9,1.719,4.19.769,1.092,2.38,1.028,3.7.848a1.326,1.326,0,0,0,1.381-1.771l-.553-7.331a3.541,3.541,0,0,0-.324-1.463c-.385-.7-1.182-1.05-1.724-1.634-1.14-1.227-1.085-3.378-2.5-4.271-.736-.463-1.7-.449-2.429-.921-.937-.6-1.239-1.816-1.9-2.717a5.788,5.788,0,0,0-4.165-2.05c-1.586-.164-3.186.034-4.78-.018-3.24-.106-6.479-1.017-9.735-.484C531.678,145.349,530.486,147.759,528.562,149.612Z" transform="translate(-79.347 -20.202)" fill="#2f2e41"/>
      </g>
    </g>
  </g>
</svg>
