<svg xmlns="http://www.w3.org/2000/svg" width="700" height="377.743" viewBox="0 0 700 377.743">
  <g id="imagem-2" transform="translate(0 -0.04)">
    <path id="Path_65" data-name="Path 65" d="M728,383.8a111.317,111.317,0,0,1-4.191,30.35,110.177,110.177,0,0,1-11.791,27.094c0,30.656-20.694,57.15-50.732,69.755a102.368,102.368,0,0,1-39.607,7.832H160.883a127.863,127.863,0,0,1-66.17-17.965,113.667,113.667,0,0,1-15.193-10.947c-20.8-17.879-33.7-42.587-33.7-69.878A110.771,110.771,0,0,1,92.585,259.113a106.778,106.778,0,0,1,15.609-5.58q2.833-.771,5.727-1.383a107.315,107.315,0,0,1,15.609-2.142q2.845-.177,5.721-.2H136.3c2.117,0,4.216.073,6.3.2l.685-1.163q1.26-2.1,2.582-4.167,2.386-3.757,5.005-7.4,2.741-3.849,5.721-7.575l.508-.612q1.689-2.1,3.451-4.161,5.507-6.419,11.626-12.452c44.123-43.248,113.248-71.089,190.958-71.089,60.467,0,115.738,16.857,158.075,44.711A106.578,106.578,0,0,1,573.8,172.268c59.806,0,108.3,49.177,108.3,109.84A113.145,113.145,0,0,1,681.5,293.6,110.14,110.14,0,0,1,728,383.8Z" transform="translate(-28 -141.34)" fill="#ff9d00" opacity="0.1"/>
    <path id="Path_66" data-name="Path 66" d="M256.286,257.52v12.452H244.66Q250.124,263.559,256.286,257.52Z" transform="translate(-112.089 -186.415)" fill="#f9a826" opacity="0.2"/>
    <rect id="Rectangle_27" data-name="Rectangle 27" width="15.609" height="15.609" transform="translate(149.924 67.947)" fill="#f9a826" opacity="0.2"/>
    <rect id="Rectangle_28" data-name="Rectangle 28" width="15.609" height="15.609" transform="translate(171.255 67.947)" fill="#f9a826" opacity="0.2"/>
    <rect id="Rectangle_29" data-name="Rectangle 29" width="15.609" height="15.609" transform="translate(192.591 67.947)" fill="#f9a826" opacity="0.2"/>
    <rect id="Rectangle_30" data-name="Rectangle 30" width="15.609" height="15.609" transform="translate(213.922 67.947)" fill="#f9a826" opacity="0.2"/>
    <rect id="Rectangle_31" data-name="Rectangle 31" width="15.609" height="15.609" transform="translate(235.258 67.947)" fill="#f9a826" opacity="0.2"/>
    <rect id="Rectangle_32" data-name="Rectangle 32" width="15.609" height="15.609" transform="translate(256.595 67.947)" fill="#f9a826"/>
    <rect id="Rectangle_33" data-name="Rectangle 33" width="15.609" height="15.609" transform="translate(277.925 67.947)" fill="#f9a826" opacity="0.2"/>
    <rect id="Rectangle_34" data-name="Rectangle 34" width="15.609" height="15.609" transform="translate(299.262 67.947)" fill="#f9a826" opacity="0.2"/>
    <rect id="Rectangle_35" data-name="Rectangle 35" width="15.609" height="15.609" transform="translate(320.592 67.947)" fill="#f9a826" opacity="0.2"/>
    <rect id="Rectangle_36" data-name="Rectangle 36" width="15.609" height="15.609" transform="translate(341.929 67.947)" fill="#f9a826"/>
    <rect id="Rectangle_37" data-name="Rectangle 37" width="15.609" height="15.609" transform="translate(363.265 67.947)" fill="#f9a826" opacity="0.2"/>
    <rect id="Rectangle_38" data-name="Rectangle 38" width="15.609" height="15.609" transform="translate(384.596 67.947)" fill="#f9a826" opacity="0.2"/>
    <rect id="Rectangle_39" data-name="Rectangle 39" width="15.609" height="15.609" transform="translate(405.932 67.947)" fill="#f9a826" opacity="0.2"/>
    <rect id="Rectangle_40" data-name="Rectangle 40" width="15.609" height="15.609" transform="translate(427.269 67.947)" fill="#f9a826" opacity="0.2"/>
    <rect id="Rectangle_41" data-name="Rectangle 41" width="15.609" height="15.609" transform="translate(448.599 67.947)" fill="#f9a826" opacity="0.2"/>
    <rect id="Rectangle_42" data-name="Rectangle 42" width="15.609" height="15.609" transform="translate(469.936 67.947)" fill="#f9a826" opacity="0.2"/>
    <rect id="Rectangle_43" data-name="Rectangle 43" width="15.609" height="15.609" transform="translate(491.266 67.947)" fill="#f9a826"/>
    <rect id="Rectangle_44" data-name="Rectangle 44" width="15.609" height="15.609" transform="translate(512.602 67.947)" fill="#f9a826"/>
    <rect id="Rectangle_45" data-name="Rectangle 45" width="15.609" height="15.609" transform="translate(533.939 67.947)" fill="#f9a826" opacity="0.2"/>
    <rect id="Rectangle_46" data-name="Rectangle 46" width="15.609" height="15.609" transform="translate(555.269 67.947)" fill="#f9a826" opacity="0.2"/>
    <rect id="Rectangle_47" data-name="Rectangle 47" width="15.609" height="15.609" transform="translate(576.606 67.947)" fill="#f9a826"/>
    <rect id="Rectangle_48" data-name="Rectangle 48" width="15.609" height="15.609" transform="translate(597.936 67.947)" fill="#f9a826"/>
    <path id="Path_67" data-name="Path 67" d="M225.625,298.08v7.4H220.62Q223.006,301.7,225.625,298.08Z" transform="translate(-102.758 -202.157)" fill="#f9a826"/>
    <rect id="Rectangle_49" data-name="Rectangle 49" width="15.609" height="15.609" transform="translate(128.588 87.717)" fill="#f9a826" opacity="0.2"/>
    <rect id="Rectangle_50" data-name="Rectangle 50" width="15.609" height="15.609" transform="translate(149.924 87.717)" fill="#f9a826"/>
    <rect id="Rectangle_51" data-name="Rectangle 51" width="15.609" height="15.609" transform="translate(171.255 87.717)" fill="#f9a826" opacity="0.2"/>
    <rect id="Rectangle_52" data-name="Rectangle 52" width="15.609" height="15.609" transform="translate(192.591 87.717)" fill="#f9a826" opacity="0.7"/>
    <rect id="Rectangle_53" data-name="Rectangle 53" width="15.609" height="15.609" transform="translate(213.922 87.717)" fill="#f9a826" opacity="0.2"/>
    <rect id="Rectangle_54" data-name="Rectangle 54" width="15.609" height="15.609" transform="translate(235.258 87.717)" fill="#f9a826" opacity="0.4"/>
    <rect id="Rectangle_55" data-name="Rectangle 55" width="15.609" height="15.609" transform="translate(256.595 87.717)" fill="#f9a826"/>
    <rect id="Rectangle_56" data-name="Rectangle 56" width="15.609" height="15.609" transform="translate(277.925 87.717)" fill="#f9a826" opacity="0.4"/>
    <rect id="Rectangle_57" data-name="Rectangle 57" width="15.609" height="15.609" transform="translate(299.262 87.717)" fill="#f9a826" opacity="0.2"/>
    <rect id="Rectangle_58" data-name="Rectangle 58" width="15.609" height="15.609" transform="translate(320.592 87.717)" fill="#f9a826" opacity="0.4"/>
    <rect id="Rectangle_59" data-name="Rectangle 59" width="15.609" height="15.609" transform="translate(341.929 87.717)" fill="#f9a826"/>
    <rect id="Rectangle_60" data-name="Rectangle 60" width="15.609" height="15.609" transform="translate(363.265 87.717)" fill="#f9a826" opacity="0.4"/>
    <rect id="Rectangle_61" data-name="Rectangle 61" width="15.609" height="15.609" transform="translate(384.596 87.717)" fill="#f9a826" opacity="0.4"/>
    <rect id="Rectangle_62" data-name="Rectangle 62" width="15.609" height="15.609" transform="translate(405.932 87.717)" fill="#f9a826" opacity="0.2"/>
    <rect id="Rectangle_63" data-name="Rectangle 63" width="15.609" height="15.609" transform="translate(427.269 87.717)" fill="#f9a826" opacity="0.4"/>
    <rect id="Rectangle_64" data-name="Rectangle 64" width="15.609" height="15.609" transform="translate(448.599 87.717)" fill="#f9a826" opacity="0.4"/>
    <rect id="Rectangle_65" data-name="Rectangle 65" width="15.609" height="15.609" transform="translate(469.936 87.717)" fill="#f9a826" opacity="0.2"/>
    <rect id="Rectangle_66" data-name="Rectangle 66" width="15.609" height="15.609" transform="translate(491.266 87.717)" fill="#f9a826" opacity="0.2"/>
    <rect id="Rectangle_67" data-name="Rectangle 67" width="15.609" height="15.609" transform="translate(512.602 87.717)" fill="#f9a826" opacity="0.4"/>
    <rect id="Rectangle_68" data-name="Rectangle 68" width="15.609" height="15.609" transform="translate(533.939 87.717)" fill="#f9a826" opacity="0.2"/>
    <rect id="Rectangle_69" data-name="Rectangle 69" width="15.609" height="15.609" transform="translate(555.269 87.717)" fill="#f9a826"/>
    <rect id="Rectangle_70" data-name="Rectangle 70" width="15.609" height="15.609" transform="translate(576.606 87.717)" fill="#f9a826"/>
    <rect id="Rectangle_71" data-name="Rectangle 71" width="15.609" height="15.609" transform="translate(597.936 87.717)" fill="#f9a826"/>
    <path id="Path_68" data-name="Path 68" d="M149.159,324.67v10.91H133.55v-5.33A106.789,106.789,0,0,1,149.159,324.67Z" transform="translate(-68.965 -212.477)" fill="#f9a826" opacity="0.2"/>
    <path id="Path_69" data-name="Path 69" d="M156.029,177.57V192H140.42V179.712Z" transform="translate(-54.499 -68.902)" fill="#f9a826" opacity="0.2"/>
    <rect id="Rectangle_72" data-name="Rectangle 72" width="15.609" height="15.609" transform="translate(107.251 107.494)" fill="#f9a826"/>
    <rect id="Rectangle_73" data-name="Rectangle 73" width="15.609" height="15.609" transform="translate(128.588 107.494)" fill="#f9a826" opacity="0.7"/>
    <rect id="Rectangle_74" data-name="Rectangle 74" width="15.609" height="15.609" transform="translate(149.924 107.494)" fill="#f9a826"/>
    <rect id="Rectangle_75" data-name="Rectangle 75" width="15.609" height="15.609" transform="translate(171.255 107.494)" fill="#f9a826" opacity="0.7"/>
    <rect id="Rectangle_76" data-name="Rectangle 76" width="15.609" height="15.609" transform="translate(192.591 107.494)" fill="#f9a826" opacity="0.7"/>
    <rect id="Rectangle_77" data-name="Rectangle 77" width="15.609" height="15.609" transform="translate(213.922 107.494)" fill="#f9a826" opacity="0.2"/>
    <rect id="Rectangle_78" data-name="Rectangle 78" width="15.609" height="15.609" transform="translate(235.258 107.494)" fill="#f9a826" opacity="0.4"/>
    <rect id="Rectangle_79" data-name="Rectangle 79" width="15.609" height="15.609" transform="translate(256.595 107.494)" fill="#f9a826" opacity="0.4"/>
    <rect id="Rectangle_80" data-name="Rectangle 80" width="15.609" height="15.609" transform="translate(277.925 107.494)" fill="#f9a826"/>
    <rect id="Rectangle_81" data-name="Rectangle 81" width="15.609" height="15.609" transform="translate(299.262 107.494)" fill="#f9a826" opacity="0.2"/>
    <rect id="Rectangle_82" data-name="Rectangle 82" width="15.609" height="15.609" transform="translate(320.592 107.494)" fill="#f9a826" opacity="0.4"/>
    <rect id="Rectangle_83" data-name="Rectangle 83" width="15.609" height="15.609" transform="translate(341.929 107.494)" fill="#f9a826"/>
    <rect id="Rectangle_84" data-name="Rectangle 84" width="15.609" height="15.609" transform="translate(363.265 107.494)" fill="#f9a826" opacity="0.2"/>
    <rect id="Rectangle_85" data-name="Rectangle 85" width="15.609" height="15.609" transform="translate(384.596 107.494)" fill="#f9a826" opacity="0.4"/>
    <rect id="Rectangle_86" data-name="Rectangle 86" width="15.609" height="15.609" transform="translate(405.932 107.494)" fill="#f9a826" opacity="0.2"/>
    <rect id="Rectangle_87" data-name="Rectangle 87" width="15.609" height="15.609" transform="translate(427.269 107.494)" fill="#f9a826"/>
    <rect id="Rectangle_88" data-name="Rectangle 88" width="15.609" height="15.609" transform="translate(448.599 107.494)" fill="#f9a826" opacity="0.2"/>
    <rect id="Rectangle_89" data-name="Rectangle 89" width="15.609" height="15.609" transform="translate(469.936 107.494)" fill="#f9a826" opacity="0.7"/>
    <rect id="Rectangle_90" data-name="Rectangle 90" width="15.609" height="15.609" transform="translate(491.266 107.494)" fill="#f9a826" opacity="0.7"/>
    <rect id="Rectangle_91" data-name="Rectangle 91" width="15.609" height="15.609" transform="translate(512.602 107.494)" fill="#f9a826" opacity="0.4"/>
    <rect id="Rectangle_92" data-name="Rectangle 92" width="15.609" height="15.609" transform="translate(533.939 107.494)" fill="#f9a826" opacity="0.2"/>
    <rect id="Rectangle_93" data-name="Rectangle 93" width="15.609" height="15.609" transform="translate(555.269 107.494)" fill="#f9a826"/>
    <rect id="Rectangle_94" data-name="Rectangle 94" width="15.609" height="15.609" transform="translate(576.606 107.494)" fill="#f9a826"/>
    <rect id="Rectangle_95" data-name="Rectangle 95" width="15.609" height="15.609" transform="translate(597.936 107.494)" fill="#f9a826"/>
    <rect id="Rectangle_96" data-name="Rectangle 96" width="15.609" height="15.609" transform="translate(64.585 127.264)" fill="#f9a826" opacity="0.2"/>
    <rect id="Rectangle_97" data-name="Rectangle 97" width="15.609" height="15.609" transform="translate(85.921 127.264)" fill="#f9a826" opacity="0.2"/>
    <rect id="Rectangle_98" data-name="Rectangle 98" width="15.609" height="15.609" transform="translate(107.251 127.264)" fill="#f9a826" opacity="0.2"/>
    <rect id="Rectangle_99" data-name="Rectangle 99" width="15.609" height="15.609" transform="translate(128.588 127.264)" fill="#f9a826" opacity="0.2"/>
    <rect id="Rectangle_100" data-name="Rectangle 100" width="15.609" height="15.609" transform="translate(149.924 127.264)" fill="#f9a826"/>
    <rect id="Rectangle_101" data-name="Rectangle 101" width="15.609" height="15.609" transform="translate(171.255 127.264)" fill="#f9a826" opacity="0.7"/>
    <rect id="Rectangle_102" data-name="Rectangle 102" width="15.609" height="15.609" transform="translate(192.591 127.264)" fill="#f9a826" opacity="0.7"/>
    <rect id="Rectangle_103" data-name="Rectangle 103" width="15.609" height="15.609" transform="translate(213.922 127.264)" fill="#f9a826" opacity="0.2"/>
    <rect id="Rectangle_104" data-name="Rectangle 104" width="15.609" height="15.609" transform="translate(235.258 127.264)" fill="#f9a826" opacity="0.2"/>
    <rect id="Rectangle_105" data-name="Rectangle 105" width="15.609" height="15.609" transform="translate(256.595 127.264)" fill="#f9a826" opacity="0.4"/>
    <rect id="Rectangle_106" data-name="Rectangle 106" width="15.609" height="15.609" transform="translate(277.925 127.264)" fill="#f9a826" opacity="0.4"/>
    <rect id="Rectangle_107" data-name="Rectangle 107" width="15.609" height="15.609" transform="translate(299.262 127.264)" fill="#f9a826"/>
    <rect id="Rectangle_108" data-name="Rectangle 108" width="15.609" height="15.609" transform="translate(320.592 127.264)" fill="#f9a826" opacity="0.2"/>
    <rect id="Rectangle_109" data-name="Rectangle 109" width="15.609" height="15.609" transform="translate(341.929 127.264)" fill="#f9a826" opacity="0.4"/>
    <rect id="Rectangle_110" data-name="Rectangle 110" width="15.609" height="15.609" transform="translate(363.265 127.264)" fill="#f9a826" opacity="0.4"/>
    <rect id="Rectangle_111" data-name="Rectangle 111" width="15.609" height="15.609" transform="translate(384.596 127.264)" fill="#f9a826" opacity="0.4"/>
    <rect id="Rectangle_112" data-name="Rectangle 112" width="15.609" height="15.609" transform="translate(405.932 127.264)" fill="#f9a826" opacity="0.4"/>
    <rect id="Rectangle_113" data-name="Rectangle 113" width="15.609" height="15.609" transform="translate(427.269 127.264)" fill="#f9a826" opacity="0.2"/>
    <rect id="Rectangle_114" data-name="Rectangle 114" width="15.609" height="15.609" transform="translate(448.599 127.264)" fill="#f9a826" opacity="0.2"/>
    <rect id="Rectangle_115" data-name="Rectangle 115" width="15.609" height="15.609" transform="translate(469.936 127.264)" fill="#f9a826" opacity="0.2"/>
    <rect id="Rectangle_116" data-name="Rectangle 116" width="15.609" height="15.609" transform="translate(491.266 127.264)" fill="#f9a826" opacity="0.2"/>
    <rect id="Rectangle_117" data-name="Rectangle 117" width="15.609" height="15.609" transform="translate(512.602 127.264)" fill="#f9a826" opacity="0.7"/>
    <rect id="Rectangle_118" data-name="Rectangle 118" width="15.609" height="15.609" transform="translate(533.939 127.264)" fill="#f9a826" opacity="0.7"/>
    <rect id="Rectangle_119" data-name="Rectangle 119" width="15.609" height="15.609" transform="translate(555.269 127.264)" fill="#f9a826" opacity="0.4"/>
    <rect id="Rectangle_120" data-name="Rectangle 120" width="15.609" height="15.609" transform="translate(576.606 127.264)" fill="#f9a826" opacity="0.2"/>
    <rect id="Rectangle_121" data-name="Rectangle 121" width="15.609" height="15.609" transform="translate(597.936 127.264)" fill="#f9a826"/>
    <rect id="Rectangle_122" data-name="Rectangle 122" width="15.609" height="15.609" transform="translate(64.585 147.04)" fill="#f9a826" opacity="0.2"/>
    <rect id="Rectangle_123" data-name="Rectangle 123" width="15.609" height="15.609" transform="translate(85.921 147.04)" fill="#f9a826" opacity="0.2"/>
    <rect id="Rectangle_124" data-name="Rectangle 124" width="15.609" height="15.609" transform="translate(107.251 147.04)" fill="#f9a826" opacity="0.4"/>
    <rect id="Rectangle_125" data-name="Rectangle 125" width="15.609" height="15.609" transform="translate(128.588 147.04)" fill="#f9a826" opacity="0.2"/>
    <rect id="Rectangle_126" data-name="Rectangle 126" width="15.609" height="15.609" transform="translate(149.924 147.04)" fill="#f9a826" opacity="0.2"/>
    <rect id="Rectangle_127" data-name="Rectangle 127" width="15.609" height="15.609" transform="translate(171.255 147.04)" fill="#f9a826" opacity="0.7"/>
    <rect id="Rectangle_128" data-name="Rectangle 128" width="15.609" height="15.609" transform="translate(192.591 147.04)" fill="#f9a826" opacity="0.7"/>
    <rect id="Rectangle_129" data-name="Rectangle 129" width="15.609" height="15.609" transform="translate(213.922 147.04)" fill="#f9a826" opacity="0.2"/>
    <rect id="Rectangle_130" data-name="Rectangle 130" width="15.609" height="15.609" transform="translate(235.258 147.04)" fill="#f9a826" opacity="0.2"/>
    <rect id="Rectangle_131" data-name="Rectangle 131" width="15.609" height="15.609" transform="translate(256.595 147.04)" fill="#f9a826" opacity="0.4"/>
    <rect id="Rectangle_132" data-name="Rectangle 132" width="15.609" height="15.609" transform="translate(277.925 147.04)" fill="#f9a826"/>
    <rect id="Rectangle_133" data-name="Rectangle 133" width="15.609" height="15.609" transform="translate(299.262 147.04)" fill="#f9a826" opacity="0.2"/>
    <rect id="Rectangle_134" data-name="Rectangle 134" width="15.609" height="15.609" transform="translate(320.592 147.04)" fill="#f9a826"/>
    <rect id="Rectangle_135" data-name="Rectangle 135" width="15.609" height="15.609" transform="translate(341.929 147.04)" fill="#f9a826"/>
    <rect id="Rectangle_136" data-name="Rectangle 136" width="15.609" height="15.609" transform="translate(363.265 147.04)" fill="#f9a826"/>
    <rect id="Rectangle_137" data-name="Rectangle 137" width="15.609" height="15.609" transform="translate(384.596 147.04)" fill="#f9a826" opacity="0.2"/>
    <rect id="Rectangle_138" data-name="Rectangle 138" width="15.609" height="15.609" transform="translate(405.932 147.04)" fill="#f9a826"/>
    <rect id="Rectangle_139" data-name="Rectangle 139" width="15.609" height="15.609" transform="translate(427.269 147.04)" fill="#f9a826" opacity="0.2"/>
    <rect id="Rectangle_140" data-name="Rectangle 140" width="15.609" height="15.609" transform="translate(448.599 147.04)" fill="#f9a826" opacity="0.2"/>
    <rect id="Rectangle_141" data-name="Rectangle 141" width="15.609" height="15.609" transform="translate(469.936 147.04)" fill="#f9a826" opacity="0.2"/>
    <rect id="Rectangle_142" data-name="Rectangle 142" width="15.609" height="15.609" transform="translate(491.266 147.04)" fill="#f9a826" opacity="0.2"/>
    <rect id="Rectangle_143" data-name="Rectangle 143" width="15.609" height="15.609" transform="translate(512.602 147.04)" fill="#f9a826" opacity="0.2"/>
    <rect id="Rectangle_144" data-name="Rectangle 144" width="15.609" height="15.609" transform="translate(533.939 147.04)" fill="#f9a826" opacity="0.7"/>
    <rect id="Rectangle_145" data-name="Rectangle 145" width="15.609" height="15.609" transform="translate(555.269 147.04)" fill="#f9a826" opacity="0.2"/>
    <rect id="Rectangle_146" data-name="Rectangle 146" width="15.609" height="15.609" transform="translate(576.606 147.04)" fill="#f9a826" opacity="0.2"/>
    <rect id="Rectangle_147" data-name="Rectangle 147" width="15.609" height="15.609" transform="translate(597.936 147.04)" fill="#f9a826"/>
    <rect id="Rectangle_148" data-name="Rectangle 148" width="15.609" height="15.609" transform="translate(64.585 166.81)" fill="#f9a826" opacity="0.2"/>
    <rect id="Rectangle_149" data-name="Rectangle 149" width="15.609" height="15.609" transform="translate(85.921 166.81)" fill="#f9a826" opacity="0.2"/>
    <rect id="Rectangle_150" data-name="Rectangle 150" width="15.609" height="15.609" transform="translate(107.251 166.81)" fill="#f9a826" opacity="0.2"/>
    <rect id="Rectangle_151" data-name="Rectangle 151" width="15.609" height="15.609" transform="translate(128.588 166.81)" fill="#f9a826" opacity="0.4"/>
    <rect id="Rectangle_152" data-name="Rectangle 152" width="15.609" height="15.609" transform="translate(149.924 166.81)" fill="#f9a826" opacity="0.2"/>
    <rect id="Rectangle_153" data-name="Rectangle 153" width="15.609" height="15.609" transform="translate(171.255 166.81)" fill="#f9a826" opacity="0.2"/>
    <rect id="Rectangle_154" data-name="Rectangle 154" width="15.609" height="15.609" transform="translate(192.591 166.81)" fill="#f9a826" opacity="0.7"/>
    <rect id="Rectangle_155" data-name="Rectangle 155" width="15.609" height="15.609" transform="translate(213.922 166.81)" fill="#f9a826" opacity="0.2"/>
    <rect id="Rectangle_156" data-name="Rectangle 156" width="15.609" height="15.609" transform="translate(235.258 166.81)" fill="#f9a826" opacity="0.2"/>
    <rect id="Rectangle_157" data-name="Rectangle 157" width="15.609" height="15.609" transform="translate(256.595 166.81)" fill="#f9a826" opacity="0.2"/>
    <rect id="Rectangle_158" data-name="Rectangle 158" width="15.609" height="15.609" transform="translate(277.925 166.81)" fill="#f9a826"/>
    <rect id="Rectangle_159" data-name="Rectangle 159" width="15.609" height="15.609" transform="translate(299.262 166.81)" fill="#f9a826" opacity="0.2"/>
    <rect id="Rectangle_160" data-name="Rectangle 160" width="15.609" height="15.609" transform="translate(320.592 166.81)" fill="#f9a826"/>
    <rect id="Rectangle_161" data-name="Rectangle 161" width="15.609" height="15.609" transform="translate(341.929 166.81)" fill="#f9a826"/>
    <rect id="Rectangle_162" data-name="Rectangle 162" width="15.609" height="15.609" transform="translate(363.265 166.81)" fill="#f9a826" opacity="0.2"/>
    <rect id="Rectangle_163" data-name="Rectangle 163" width="15.609" height="15.609" transform="translate(384.596 166.81)" fill="#f9a826" opacity="0.2"/>
    <rect id="Rectangle_164" data-name="Rectangle 164" width="15.609" height="15.609" transform="translate(405.932 166.81)" fill="#f9a826" opacity="0.2"/>
    <rect id="Rectangle_165" data-name="Rectangle 165" width="15.609" height="15.609" transform="translate(427.269 166.81)" fill="#f9a826" opacity="0.2"/>
    <rect id="Rectangle_166" data-name="Rectangle 166" width="15.609" height="15.609" transform="translate(448.599 166.81)" fill="#f9a826" opacity="0.2"/>
    <rect id="Rectangle_167" data-name="Rectangle 167" width="15.609" height="15.609" transform="translate(469.936 166.81)" fill="#f9a826" opacity="0.2"/>
    <rect id="Rectangle_168" data-name="Rectangle 168" width="15.609" height="15.609" transform="translate(491.266 166.81)" fill="#f9a826" opacity="0.2"/>
    <rect id="Rectangle_169" data-name="Rectangle 169" width="15.609" height="15.609" transform="translate(512.602 166.81)" fill="#f9a826" opacity="0.2"/>
    <rect id="Rectangle_170" data-name="Rectangle 170" width="15.609" height="15.609" transform="translate(533.939 166.81)" fill="#f9a826" opacity="0.2"/>
    <rect id="Rectangle_171" data-name="Rectangle 171" width="15.609" height="15.609" transform="translate(555.269 166.81)" fill="#f9a826" opacity="0.2"/>
    <rect id="Rectangle_172" data-name="Rectangle 172" width="15.609" height="15.609" transform="translate(576.606 166.81)" fill="#f9a826" opacity="0.4"/>
    <rect id="Rectangle_173" data-name="Rectangle 173" width="15.609" height="15.609" transform="translate(597.936 166.81)" fill="#f9a826"/>
    <rect id="Rectangle_174" data-name="Rectangle 174" width="15.609" height="15.609" transform="translate(64.585 186.586)" fill="#f9a826" opacity="0.7"/>
    <rect id="Rectangle_175" data-name="Rectangle 175" width="15.609" height="15.609" transform="translate(85.921 186.586)" fill="#f9a826" opacity="0.7"/>
    <rect id="Rectangle_176" data-name="Rectangle 176" width="15.609" height="15.609" transform="translate(107.251 186.586)" fill="#f9a826" opacity="0.7"/>
    <rect id="Rectangle_177" data-name="Rectangle 177" width="15.609" height="15.609" transform="translate(128.588 186.586)" fill="#f9a826" opacity="0.7"/>
    <rect id="Rectangle_178" data-name="Rectangle 178" width="15.609" height="15.609" transform="translate(149.924 186.586)" fill="#f9a826" opacity="0.7"/>
    <rect id="Rectangle_179" data-name="Rectangle 179" width="15.609" height="15.609" transform="translate(171.255 186.586)" fill="#f9a826" opacity="0.2"/>
    <rect id="Rectangle_180" data-name="Rectangle 180" width="15.609" height="15.609" transform="translate(192.591 186.586)" fill="#f9a826" opacity="0.2"/>
    <rect id="Rectangle_181" data-name="Rectangle 181" width="15.609" height="15.609" transform="translate(213.922 186.586)" fill="#f9a826" opacity="0.2"/>
    <rect id="Rectangle_182" data-name="Rectangle 182" width="15.609" height="15.609" transform="translate(235.258 186.586)" fill="#f9a826" opacity="0.2"/>
    <rect id="Rectangle_183" data-name="Rectangle 183" width="15.609" height="15.609" transform="translate(256.595 186.586)" fill="#f9a826" opacity="0.2"/>
    <rect id="Rectangle_184" data-name="Rectangle 184" width="15.609" height="15.609" transform="translate(277.925 186.586)" fill="#f9a826" opacity="0.2"/>
    <rect id="Rectangle_185" data-name="Rectangle 185" width="15.609" height="15.609" transform="translate(299.262 186.586)" fill="#f9a826"/>
    <rect id="Rectangle_186" data-name="Rectangle 186" width="15.609" height="15.609" transform="translate(320.592 186.586)" fill="#f9a826" opacity="0.2"/>
    <rect id="Rectangle_187" data-name="Rectangle 187" width="15.609" height="15.609" transform="translate(341.929 186.586)" fill="#f9a826" opacity="0.2"/>
    <rect id="Rectangle_188" data-name="Rectangle 188" width="15.609" height="15.609" transform="translate(363.265 186.586)" fill="#f9a826" opacity="0.2"/>
    <rect id="Rectangle_189" data-name="Rectangle 189" width="15.609" height="15.609" transform="translate(384.596 186.586)" fill="#f9a826"/>
    <rect id="Rectangle_190" data-name="Rectangle 190" width="15.609" height="15.609" transform="translate(405.932 186.586)" fill="#f9a826" opacity="0.2"/>
    <rect id="Rectangle_191" data-name="Rectangle 191" width="15.609" height="15.609" transform="translate(427.269 186.586)" fill="#f9a826" opacity="0.2"/>
    <rect id="Rectangle_192" data-name="Rectangle 192" width="15.609" height="15.609" transform="translate(448.599 186.586)" fill="#f9a826" opacity="0.2"/>
    <rect id="Rectangle_193" data-name="Rectangle 193" width="15.609" height="15.609" transform="translate(469.936 186.586)" fill="#f9a826" opacity="0.2"/>
    <rect id="Rectangle_194" data-name="Rectangle 194" width="15.609" height="15.609" transform="translate(491.266 186.586)" fill="#f9a826" opacity="0.2"/>
    <rect id="Rectangle_195" data-name="Rectangle 195" width="15.609" height="15.609" transform="translate(512.602 186.586)" fill="#f9a826" opacity="0.2"/>
    <rect id="Rectangle_196" data-name="Rectangle 196" width="15.609" height="15.609" transform="translate(533.939 186.586)" fill="#f9a826" opacity="0.2"/>
    <rect id="Rectangle_197" data-name="Rectangle 197" width="15.609" height="15.609" transform="translate(555.269 186.586)" fill="#f9a826" opacity="0.2"/>
    <rect id="Rectangle_198" data-name="Rectangle 198" width="15.609" height="15.609" transform="translate(576.606 186.586)" fill="#f9a826" opacity="0.2"/>
    <rect id="Rectangle_199" data-name="Rectangle 199" width="15.609" height="15.609" transform="translate(597.936 186.586)" fill="#f9a826"/>
    <circle id="Ellipse_16" data-name="Ellipse 16" cx="21.337" cy="21.337" r="21.337" transform="translate(428.107 201.339)" fill="#767d9f"/>
    <path id="Path_70" data-name="Path 70" d="M760.363,450.507q3.194,13.939,5.421,28.086c.447,2.8.844,5.758-.171,8.407-.851,2.209-2.582,3.934-3.941,5.868s-2.386,4.412-1.56,6.627,3.237,3.427,5.538,4.051c6.584,1.774,13.6.483,20.156-1.438a32.61,32.61,0,0,0,8.45-3.5,31.621,31.621,0,0,0,7.147-6.731c9.552-11.583,15.805-25.485,21.691-39.3a23.937,23.937,0,0,1-20.26-8.163c-2.411-2.833-4.179-6.78-2.821-10.243-3.983,2.184-8.713,2.331-13,3.824a46.194,46.194,0,0,0-7.649,3.763q-4.393,2.539-8.738,5.177C767.314,448.929,764.212,450.7,760.363,450.507Z" transform="translate(-312.027 -254.976)" fill="#ae6e79"/>
    <path id="Path_71" data-name="Path 71" d="M775.311,474.559c-3.739,7.275-8.6,14.269-15.548,18.6s-16.295,5.507-23.252,1.224c-3.427-2.093-6.021-5.274-9.013-7.955s-6.731-4.975-10.751-4.626c-4.43.385-7.9,3.843-10.867,7.153-4.5,5.03-8.854,10.274-12.042,16.227-6.119,11.442-7.569,24.818-7.3,37.79s2.148,25.877,2.191,38.849c.061,15.958-2.643,31.788-5.378,47.507,25.149-3.1,50.328,3.671,75.531,6.235,16.129,1.658,32.381,1.622,48.6,1.579,2.852,0,5.886-.073,8.26-1.652a11.136,11.136,0,0,0,3.42-4.063c2.24-4.13,3.139-8.842,3.763-13.5,1.585-11.76,1.634-23.668,1.677-35.538.11-28.759.214-57.621-3.439-86.154-.9-7.018-2.05-14.073-4.742-20.639s-7.086-12.6-13.229-16.123c-3.947-2.264-13.094-6.2-17.745-3.922C780.224,458.1,777.813,469.688,775.311,474.559Z" transform="translate(-282.35 -263.008)" fill="#767d9f"/>
    <path id="Path_72" data-name="Path 72" d="M833.295,552.577c-.948-17.745-4.809-36.683,3.408-52.433,2.019-3.867-5.225-8.695-2.986-12.44a56.345,56.345,0,0,0,6.156-14.642,11.044,11.044,0,0,0,.4-5.415c-.814-3.237-4.014-5.164-6.731-7.135-3-2.178-4.54-8.817-5.507-12.409s7.691.734,11.173-.545c4.834-1.768,10.977-.655,15.8,1.138a26.37,26.37,0,0,0,8.487,1.15,111.81,111.81,0,0,0,16.7-.4,41.531,41.531,0,0,1,7.471-.642c6.37.361,11.907,4.718,15.677,9.87s6.168,11.155,9.258,16.735c2.576,4.65,5.648,9.044,7.844,13.884a85.47,85.47,0,0,1,4.393,13.462l3.139,11.742a15.653,15.653,0,0,1,.771,5.207,14.777,14.777,0,0,1-1.836,5.3,100.422,100.422,0,0,1-11.424,17.433c-6.6,8.1-14.618,15.4-18.54,25.087a63.365,63.365,0,0,0-3.157,11.791,433.179,433.179,0,0,0-6.67,48.431,106.589,106.589,0,0,0-22.346-7.471,108.68,108.68,0,0,0-11.626-1.836c-3.421-.355-7.832.318-11.087-.612-5.446-1.548-6.045-10.757-6.871-15.579A142.265,142.265,0,0,1,833.552,579C833.491,570.175,833.766,561.37,833.295,552.577Z" transform="translate(-338.474 -259.816)" fill="#2f2e41"/>
    <path id="Path_73" data-name="Path 73" d="M607.719,560.3c2.576,14.685,5.415,29.414,11.014,43.211-.141.135-.281.257-.422.379-.5.422-1.01.82-1.548,1.224a20.607,20.607,0,0,0-3.671,2.778,4.895,4.895,0,0,0-.918,1.5,3.353,3.353,0,0,0,0,2.735c-2.919,1.291-6.308.893-9.582.771-2.821-.1-5.556,0-7.82,1.548-3.145,2.166-4.094,6.327-4.6,10.108q-.282,2.068-.483,4.143-.2,1.927-.318,3.867a115.405,115.405,0,0,0-.116,12.85q.049,1.175.129,2.35c-10-.239-19.109-5.452-27.731-10.518-1.97-1.156-4-2.374-5.281-4.283a9.668,9.668,0,0,1-1.413-6.3,6.953,6.953,0,0,1,.1-.93,25.44,25.44,0,0,1,1.4-5.311A65.594,65.594,0,0,1,568.2,600.446c2.19-2.558,4.656-5.06,5.678-8.273.447-1.4.612-2.888,1.065-4.283,2.031-6.045,9.362-8.9,11.871-14.771a44.835,44.835,0,0,1,1.652-4.283,10.79,10.79,0,0,1,2.6-2.906c.447-.373.912-.734,1.371-1.1q6.449-5.054,12.427-10.677,1.114-1.046,2.2-2.117a36.4,36.4,0,0,0,.655,8.261Z" transform="translate(-232.492 -300.722)" fill="#2f2e41"/>
    <path id="Path_74" data-name="Path 74" d="M702.494,486.1c-.881.93-1.836,1.805-2.772,2.674l-.251.226-.991.918a23.866,23.866,0,0,0-4.62,5.379l-.1.171c-3.121,5.587-1.964,12.464-1.1,18.809a160.041,160.041,0,0,1,1.45,23.864c-.159,11.014-1.456,21.954-1.481,32.956q0,3.745.165,7.483c.177,4.057.483,8.108.851,12.158.4,4.442.875,8.879,1.322,13.315.355,3.433.691,6.859.973,10.286.141,1.774.275,3.543.386,5.317.128,2.08.232,4.167.294,6.247h0c.043,1.322.067,2.637.067,3.959v2.246q0,2.148-.116,4.283-.122,2.747-.373,5.507c-.19,2-.526,4.185-1.934,5.593-.086.086-.177.165-.269.245l-1.982-.245a203.582,203.582,0,0,0-41.18-.734c.3-2.068.575-4.13.844-6.2.122-.979.245-1.964.361-2.949q.2-1.689.385-3.378.211-1.836.392-3.671.477-4.73.838-9.466.532-6.908.808-13.841.135-3.31.208-6.627.1-4.112.1-8.23,0-4-.067-8.016c0-.881-.037-1.762-.11-2.637a16.721,16.721,0,0,0-.324-2.344,30.508,30.508,0,0,0-1.836-5.189c-.135-.318-.263-.612-.392-.949-.073-.165-.141-.336-.208-.5,3.524-3.139,6.033-7.343,8.444-11.479,3.91-6.663,7.912-13.621,8.566-21.318s-3.17-16.344-10.524-18.693a51.113,51.113,0,0,0-6.18-1.144c-1.946-.343-6-1.12-8.254-2.515q-1.836,1.885-3.671,3.7a13.554,13.554,0,0,1,1.328-5.33l.869.043a1.66,1.66,0,0,1-.1-.612,3.216,3.216,0,0,1,1.42-2.215c2.882-2.448,7.416-2.992,9.233-6.3.759-1.377.887-3.017,1.5-4.461,1.756-4.118,6.8-5.635,9.833-8.927s3.794-7.955,6.247-11.626a17.513,17.513,0,0,1,7.343-6.119c.245-.116.5-.233.746-.337,5.079-2.172,11.112-2.668,16.374-2.656,2.044,0,7.343.061,9.937,1.1a3.255,3.255,0,0,1,1.132.691C708.839,477.567,704.538,483.925,702.494,486.1Z" transform="translate(-265.607 -269.956)" fill="#2f2e41"/>
    <path id="Path_75" data-name="Path 75" d="M635.454,541.687a37.252,37.252,0,0,1,28.6,2.98,27.051,27.051,0,0,1,10.781,10.268c3.641,6.608,3.482,14.575,3.225,22.12-.129,3.775-.294,7.685-1.958,11.075-1.927,3.922-5.562,6.615-9.27,8.817a25.85,25.85,0,0,1-7.538,3.261c-4.112.893-8.383.135-12.525-.612-4.5-.832-9.337-1.836-12.464-5.189-1.836-1.946-2.839-4.473-3.83-6.945q-2.135-5.354-4.283-10.7c-2.478-6.186-3.316-11.332-.043-17.359,1.487-2.747,3.3-5.317,4.773-8.083C631.655,549.917,634.286,542.048,635.454,541.687Z" transform="translate(-259.315 -296.09)" fill="#2f2e41"/>
    <path id="Path_76" data-name="Path 76" d="M703.619,692.685v18.3a102.37,102.37,0,0,1-39.607,7.832H498.992c-.086.086-.177.165-.269.245l-1.983-.245H203.2a127.864,127.864,0,0,1-66.17-17.965V672.915L278.2,656.62h.11l82.213,6.963,21.275,1.836,11.051.936,22.872,1.94,11.767,1,17.133,1.456,2.411.2L459.385,672l16.753,1.377,23.558,1.995,39.271,3.335,27.627,2.344,45.365,3.849,8.628.728.93.08.808.067,11.393.967,12.507,1.065,1.45.122Z" transform="translate(-70.316 -341.311)" fill="#504f60"/>
    <path id="Path_77" data-name="Path 77" d="M647.43,553.967l-176.921-30.2-6.859,34.688,81.1,9.711,24.971,3.127,68.69-13.529Z" transform="translate(-179.949 -203.266)" fill="#9c9ca1"/>
    <path id="Path_78" data-name="Path 78" d="M642.33,729.337l88.638-16.662a3.059,3.059,0,0,1,3.635,3.017h0a3.059,3.059,0,0,1-2.5,3.016l-86.564,16.209Z" transform="translate(-266.429 -363.046)" fill="#9c9ca1"/>
    <path id="Path_79" data-name="Path 79" d="M661.414,646.794a22.862,22.862,0,0,0,8.04-1.915c3.06-1.524,5.44-4.149,8.273-6.082,6.229-4.283,14.563-4.858,21.7-2.4s13.1,7.728,17.274,14.018c2.772,4.191,4.852,9.539,2.894,14.165a18.668,18.668,0,0,1-2.521,3.941l-5.1,6.67a17.741,17.741,0,0,1-3.463,3.726,14.716,14.716,0,0,1-6.621,2.3c-6.211.906-12.531.391-18.791.808-10.751.716-21.251,4.179-32.026,4.063-6.192-.067-12.305-1.316-18.357-2.564l-26.782-5.507c-4.663-.955-9.931-2.35-12.128-6.578a15.25,15.25,0,0,1-1.285-6.247c-.318-5.9,0-12.458,4.087-16.711,3.843-3.989,9.919-5.25,14.508-8.2,5.617-3.616,7.471-2.448,13.394.269a73.425,73.425,0,0,0,36.9,6.241Z" transform="translate(-247.063 -332.899)" fill="#ae6e79"/>
    <path id="Path_80" data-name="Path 80" d="M661.414,646.794a22.862,22.862,0,0,0,8.04-1.915c3.06-1.524,5.44-4.149,8.273-6.082,6.229-4.283,14.563-4.858,21.7-2.4s13.1,7.728,17.274,14.018c2.772,4.191,4.852,9.539,2.894,14.165a18.668,18.668,0,0,1-2.521,3.941l-5.1,6.67a17.741,17.741,0,0,1-3.463,3.726,14.716,14.716,0,0,1-6.621,2.3c-6.211.906-12.531.391-18.791.808-10.751.716-21.251,4.179-32.026,4.063-6.192-.067-12.305-1.316-18.357-2.564l-26.782-5.507c-4.663-.955-9.931-2.35-12.128-6.578a15.25,15.25,0,0,1-1.285-6.247c-.318-5.9,0-12.458,4.087-16.711,3.843-3.989,9.919-5.25,14.508-8.2,5.617-3.616,7.471-2.448,13.394.269a73.425,73.425,0,0,0,36.9,6.241Z" transform="translate(-247.063 -332.899)" opacity="0.05"/>
    <path id="Path_81" data-name="Path 81" d="M780.444,638.614c-7.514,2.906-15.071,5.825-22.94,7.557-13.192,2.906-27,2.448-40.085,5.77-6.914,1.762-13.786,4.6-20.89,4.026a62.591,62.591,0,0,1-9.331-1.958c-17.359-4.283-37.093-2.894-51.19,8.12A63.7,63.7,0,0,0,623.66,675.59a8.995,8.995,0,0,0,3.616,13.388,53,53,0,0,0,17.365,4.632c8.034.71,16.1-.428,24.1-1.566,11.858-1.683,23.723-3.372,35.551-5.262,4.246-.679,8.493-1.383,12.764-1.921,30.735-3.885,62.027.838,92.842-2.4a28.367,28.367,0,0,0,9.117-2.087c7.171-3.365,10.72-12.238,9.24-20.033s-7.2-14.275-14.073-18.253c-5.764-3.347-11.981-4.7-18.4-6.119C789.818,634.575,786.183,636.411,780.444,638.614Z" transform="translate(-258.541 -333.107)" fill="#ae6e79"/>
    <path id="Path_82" data-name="Path 82" d="M937.828,547.888c3.39,4.442,4.112,10.4,3.745,15.964s-1.689,11.063-1.885,16.649c-.269,7.661,1.579,15.3,1.267,22.934a65.974,65.974,0,0,1-2.986,15.707c-1.768,6.052-4.326,12.556-9.913,15.462-7.416,3.861-22.97,1.689-30.772,4.712.71-4.424,7.514-10.83,8.224-15.254.49-3.059.985-6.2.459-9.27-.673-3.91-2.968-7.379-5.691-10.267a30.026,30.026,0,0,0-16.2-9.178c-6.211-1.126-21.416-.2-26.385,3.72-.612-4.051,10.769-7.955,14.771-8.83,1.995-.447,4.283-.2,5.88-1.462,3.059-2.4.838-7.177.985-11.014.116-3.059,1.9-5.862,2.264-8.921.612-4.9-2.582-9.882-1.328-14.685a38.1,38.1,0,0,1,2.215-5.024c2.178-5.17,1.224-11.069.061-16.564-.722-3.451-1.426-7.343.5-10.286,1.781-2.747,6.835,7.037,10.072,6.584,10.69-1.5,20.364-9.423,29-2.937,4.4,3.3,4.975,6.731,6.731,11.448C930.546,541.867,934.97,544.168,937.828,547.888Z" transform="translate(-350.006 -288.983)" opacity="0.1"/>
    <path id="Path_83" data-name="Path 83" d="M940.828,545.264c3.39,4.442,4.112,10.4,3.745,15.964s-1.689,11.063-1.885,16.649c-.269,7.661,1.579,15.3,1.267,22.933a65.977,65.977,0,0,1-2.986,15.707c-1.768,6.052-4.326,12.556-9.913,15.462-7.416,3.861-22.97,1.689-30.772,4.712.71-4.424,7.514-10.83,8.224-15.254.49-3.059.985-6.2.459-9.27-.673-3.91-2.968-7.379-5.691-10.267a30.028,30.028,0,0,0-16.2-9.178c-6.211-1.126-21.416-.2-26.385,3.72-.612-4.051,10.769-7.954,14.771-8.829,1.995-.447,4.283-.2,5.88-1.462,3.059-2.4.838-7.177.985-11.014.116-3.059,1.9-5.862,2.264-8.921.612-4.9-2.582-9.882-1.328-14.685a38.108,38.108,0,0,1,2.215-5.024c2.178-5.17,1.224-11.069.061-16.564-.722-3.451-1.426-7.343.5-10.286,1.781-2.747,5.262-3.788,8.5-4.247a41.866,41.866,0,0,1,30.594,7.893c4.4,3.3,4.975,6.731,6.731,11.448C933.546,539.243,937.97,541.544,940.828,545.264Z" transform="translate(-351.17 -286.359)" fill="#2f2e41"/>
    <path id="Path_84" data-name="Path 84" d="M329.83,503.963,363.1,626.915a7.679,7.679,0,0,0,6.676,5.635l149.741,14.385a7.673,7.673,0,0,0,8.187-9.472L491.27,489.155a7.673,7.673,0,0,0-8.028-5.819L336.64,494.3a7.673,7.673,0,0,0-6.81,9.662Z" transform="translate(-145.04 -274.049)" fill="#c6c6cc"/>
    <ellipse id="Ellipse_17" data-name="Ellipse 17" cx="16.46" cy="16.674" rx="16.46" ry="16.674" transform="translate(465.163 220.558)" fill="#fff"/>
    <path id="Path_85" data-name="Path 85" d="M832.077,479.143s3.469,10.316-6.767,14.655L824,496.086l6.413,6.327s7.906-14.422,7.049-19.544C837.462,482.869,836.238,477.668,832.077,479.143Z" transform="translate(-336.938 -272.328)" fill="#fff"/>
    <circle id="Ellipse_18" data-name="Ellipse 18" cx="15.872" cy="15.872" r="15.872" transform="translate(467.641 222.161)" fill="#f9a826" stroke="#faa825" stroke-width="1"/>
    <path id="Path_86" data-name="Path 86" d="M833.346,468.99l-2.521-4.161-3.671-.52c.783-13.7-2.772-17.781-2.772-17.781l-.826-.08-3.6-.349-6.767-7.025V437.08c9.509,1.132,14.765,5.648,17.6,10.941C835.811,457.309,833.346,468.99,833.346,468.99Z" transform="translate(-332.742 -256.105)" fill="#f9a826"/>
    <path id="Path_87" data-name="Path 87" d="M823.605,445.192v2.521l-3.6-.349-6.767-7.024S823.709,442.684,823.605,445.192Z" transform="translate(-332.762 -257.37)" stroke="#4c4981" stroke-miterlimit="10" stroke-width="1" opacity="0.1"/>
    <path id="Path_88" data-name="Path 88" d="M844.531,475.945l-2.521-4.161V455C847,464.264,844.531,475.945,844.531,475.945Z" transform="translate(-343.928 -263.06)" stroke="#4c4981" stroke-miterlimit="10" stroke-width="1" opacity="0.1"/>
    <ellipse id="Ellipse_19" data-name="Ellipse 19" cx="8.83" cy="16.105" rx="8.83" ry="16.105" transform="translate(430.434 221.08) rotate(-30)" fill="#fff"/>
    <path id="Path_89" data-name="Path 89" d="M750.076,508.069c4.448,7.7,9.906,12.85,5.684,15.3s-16.521,1.224-20.969-6.486-.41-18.357,3.812-20.8S745.621,500.346,750.076,508.069Z" transform="translate(-301.563 -278.803)" fill="#f9a826"/>
    <path id="Path_90" data-name="Path 90" d="M771.158,399.413c0,24.616-16.845,48.339-41.462,48.339a44.576,44.576,0,0,1,0-89.152C754.312,358.624,771.158,374.791,771.158,399.413Z" transform="translate(-283.037 -225.646)" opacity="0.1"/>
    <circle id="Ellipse_20" data-name="Ellipse 20" cx="44.576" cy="44.576" r="44.576" transform="translate(402.083 131.755)" fill="#ae6e79"/>
    <path id="Path_91" data-name="Path 91" d="M713.963,360.375c5.3,1.952,8.444,7.434,13.2,10.488,6.731,4.283,15.493,3.176,23.178,1.059,4.283-1.169,8.762-2.594,12.978-1.3a3.672,3.672,0,0,0,1.976.281c.918-.263,1.371-1.279,1.67-2.184,5.213-15.542,2.87-33.146-5-47.525a30.719,30.719,0,0,0-7.82-9.87,32.621,32.621,0,0,0-8.885-4.485,88.728,88.728,0,0,0-17.671-4.363,10.979,10.979,0,0,0-3.225-.1,13.5,13.5,0,0,0-4.112,1.744,42.087,42.087,0,0,1-18.271,4.962c-8.566.324-18.357-1.695-24.959,3.8-7.955,6.59-5.972,19.446-11.13,28.392-3.414,5.917-10,10.212-11.081,16.949a15.647,15.647,0,0,0,.385,6.162,25.073,25.073,0,0,0,23.252,18.583,8.824,8.824,0,0,0,4.748-.973,10.739,10.739,0,0,0,2.5-2.38C692.712,371.315,700.728,355.5,713.963,360.375Z" transform="translate(-271.22 -203.795)" fill="#444053"/>
    <path id="Path_92" data-name="Path 92" d="M766.959,393.8c-.3.906-.753,1.921-1.67,2.184a3.671,3.671,0,0,1-1.976-.281c-4.216-1.3-8.719.128-12.972,1.3-7.691,2.117-16.472,3.249-23.178-1.059-4.767-3.059-7.9-8.566-13.211-10.488-13.235-4.9-21.251,10.941-28.275,19.238a10.74,10.74,0,0,1-2.5,2.38,8.824,8.824,0,0,1-4.748.973,25.138,25.138,0,0,1-23.252-18.583c-.141-.612-.263-1.224-.355-1.836a.3.3,0,0,1-.031.159,15.646,15.646,0,0,0,.385,6.162,25.079,25.079,0,0,0,23.252,18.583,8.823,8.823,0,0,0,4.748-.973,10.739,10.739,0,0,0,2.5-2.38c7.024-8.3,15.04-24.108,28.275-19.238,5.311,1.952,8.444,7.434,13.211,10.488,6.731,4.283,15.487,3.176,23.178,1.059,4.283-1.169,8.756-2.594,12.972-1.3a3.672,3.672,0,0,0,1.976.281c.918-.263,1.371-1.279,1.67-2.184A55.247,55.247,0,0,0,769.7,378.55,54.336,54.336,0,0,1,766.959,393.8Z" transform="translate(-271.208 -233.389)" opacity="0.1"/>
  </g>
</svg>
