<svg xmlns="http://www.w3.org/2000/svg" xmlns:xlink="http://www.w3.org/1999/xlink" width="200" height="295" viewBox="0 0 200 295">
  <defs>
    <filter id="Rectangle_201" x="0" y="0" width="200" height="295" filterUnits="userSpaceOnUse">
      <feOffset dx="3" dy="3" input="SourceAlpha"/>
      <feGaussianBlur stdDeviation="5" result="blur"/>
      <feFlood flood-opacity="0.541"/>
      <feComposite operator="in" in2="blur"/>
      <feComposite in="SourceGraphic"/>
    </filter>
    <clipPath id="clip-path">
      <rect id="Rectangle_202" data-name="Rectangle 202" width="133" height="175" transform="translate(133 1212)" fill="#fff" stroke="#707070" stroke-width="1"/>
    </clipPath>
  </defs>
  <g id="html-icon" transform="translate(-103 -1180)">
    <g transform="matrix(1, 0, 0, 1, 103, 1180)" filter="url(#Rectangle_201)">
      <rect id="Rectangle_201-2" data-name="Rectangle 201" width="170" height="265" rx="10" transform="translate(12 12)" fill="#f3f3f3"/>
    </g>
    <g id="Mask_Group_3" data-name="Mask Group 3" clip-path="url(#clip-path)">
      <g id="html-icon-2" data-name="html-icon" transform="translate(105.618 1205.618)">
        <path id="Path_97" data-name="Path 97" d="M160.382,19.559h-133l11.735,133,54.765,15.647,54.765-15.647,11.735-133Z" fill="#e65100"/>
        <path id="Path_98" data-name="Path 98" d="M93.882,31.294V156.079l43.812-12.518,9.779-112.268Z" fill="#ff6d00"/>
        <path id="Path_99" data-name="Path 99" d="M93.882,97.794V82.147h33.641l-2.738,44.985L93.882,137.3V120.874l16.038-5.476,1.174-17.6H93.882ZM128.7,66.5l1.174-15.647H93.882V66.5Z" fill="#fff"/>
        <path id="Path_100" data-name="Path 100" d="M93.882,120.874V137.3l-30.9-10.171-1.565-21.515H77.062l.782,9.779ZM74.715,66.5H93.882V50.853h-35.6l2.738,46.941H93.882V82.147H75.888Z" fill="#eee"/>
      </g>
    </g>
    <text id="HTML5" transform="translate(154 1432)" fill="#3f3d56" font-size="28" font-family="Arial-BoldMT, Arial" font-weight="700"><tspan x="0" y="0">HTML5</tspan></text>
  </g>
</svg>
