<svg xmlns="http://www.w3.org/2000/svg" xmlns:xlink="http://www.w3.org/1999/xlink" width="200" height="295" viewBox="0 0 200 295">
  <defs>
    <filter id="Rectangle_201" x="0" y="0" width="200" height="295" filterUnits="userSpaceOnUse">
      <feOffset dx="3" dy="3" input="SourceAlpha"/>
      <feGaussianBlur stdDeviation="5" result="blur"/>
      <feFlood flood-opacity="0.541"/>
      <feComposite operator="in" in2="blur"/>
      <feComposite in="SourceGraphic"/>
    </filter>
    <clipPath id="clip-path">
      <rect id="Rectangle_202" data-name="Rectangle 202" width="133" height="133" transform="translate(133 1233)" fill="#fff" stroke="#707070" stroke-width="1"/>
    </clipPath>
  </defs>
  <g id="js-icon" transform="translate(-103 -1180)">
    <g transform="matrix(1, 0, 0, 1, 103, 1180)" filter="url(#Rectangle_201)">
      <rect id="Rectangle_201-2" data-name="Rectangle 201" width="170" height="265" rx="10" transform="translate(12 12)" fill="#f3f3f3"/>
    </g>
    <g id="Mask_Group_5" data-name="Mask Group 5" clip-path="url(#clip-path)">
      <g id="js-icon-2" data-name="js-icon" transform="translate(110.833 1210.833)">
        <path id="Path_105" data-name="Path 105" d="M22.167,155.167v-133h133v133Z" fill="#ffd600"/>
        <path id="Path_106" data-name="Path 106" d="M109.127,121.721c2.557,4.153,5.335,8.131,11.22,8.131,4.943,0,7.537-2.457,7.537-5.856,0-4.068-2.682-5.512-8.12-7.88l-2.981-1.271c-8.6-3.65-14.327-8.224-14.327-17.885,0-8.9,6.816-15.679,17.467-15.679,7.585,0,13.034,2.627,16.965,9.506L127.6,96.724c-2.043-3.65-4.252-5.087-7.677-5.087-3.495,0-5.708,2.206-5.708,5.087,0,3.561,2.217,5,7.333,7.208l2.981,1.271c10.141,4.319,15.86,8.73,15.86,18.646,0,10.684-8.438,16.54-19.765,16.54-11.08,0-17.371-5.56-20.874-12.443Zm-42.8.3c1.869,3.347,4.71,5.922,8.8,5.922,3.909,0,6.159-1.544,6.159-7.548V81.278H93.591V122.29c0,12.439-7.215,18.1-17.752,18.1-9.521,0-16.392-6.45-19.193-12.443Z" fill="#000001"/>
      </g>
    </g>
    <text id="JavaScript" transform="translate(127 1421)" fill="#3f3d56" font-size="28" font-family="Arial-BoldMT, Arial" font-weight="700"><tspan x="0" y="0">JavaScript</tspan></text>
  </g>
</svg>
