<svg xmlns="http://www.w3.org/2000/svg" xmlns:xlink="http://www.w3.org/1999/xlink" width="200" height="295" viewBox="0 0 200 295">
  <defs>
    <filter id="Rectangle_201" x="0" y="0" width="200" height="295" filterUnits="userSpaceOnUse">
      <feOffset dx="3" dy="3" input="SourceAlpha"/>
      <feGaussianBlur stdDeviation="5" result="blur"/>
      <feFlood flood-opacity="0.541"/>
      <feComposite operator="in" in2="blur"/>
      <feComposite in="SourceGraphic"/>
    </filter>
    <clipPath id="clip-path">
      <rect id="Rectangle_202" data-name="Rectangle 202" width="133" height="129" transform="translate(133 1235)" fill="#fff" stroke="#707070" stroke-width="1"/>
    </clipPath>
  </defs>
  <g id="xd-icon" transform="translate(-103 -1180)">
    <g transform="matrix(1, 0, 0, 1, 103, 1180)" filter="url(#Rectangle_201)">
      <rect id="Rectangle_201-2" data-name="Rectangle 201" width="170" height="265" rx="10" transform="translate(12 12)" fill="#f3f3f3"/>
    </g>
    <g id="Mask_Group_6" data-name="Mask Group 6" clip-path="url(#clip-path)">
      <g id="xd-icon-2" data-name="xd-icon" transform="translate(133 1235.333)">
        <path id="Path_107" data-name="Path 107" d="M23.552,0h85.9A23.412,23.412,0,0,1,133,23.308v81.717a23.412,23.412,0,0,1-23.552,23.308h-85.9A23.412,23.412,0,0,1,0,105.025V23.308A23.412,23.412,0,0,1,23.552,0Z" fill="#470137"/>
        <path id="Path_108" data-name="Path 108" d="M69.936,33.729,53.311,60.876,71.044,89.669a.935.935,0,0,1,.111.658c-.055.219-.277.055-.609.11H57.855c-.887,0-1.5-.055-1.884-.6-1.164-2.3-2.383-4.552-3.547-6.856-1.164-2.248-2.438-4.552-3.768-6.91s-2.66-4.717-3.99-7.13h-.111c-1.164,2.358-2.438,4.717-3.713,7.075s-2.549,4.717-3.768,7.02c-1.275,2.3-2.549,4.662-3.824,6.91-.222.548-.665.6-1.274.6H19.784c-.222,0-.388.11-.388-.164a.755.755,0,0,1,.111-.6l17.235-27.97L19.95,33.674c-.166-.219-.222-.439-.111-.548a.645.645,0,0,1,.554-.22h12.58a3.3,3.3,0,0,1,.776.11,1.57,1.57,0,0,1,.554.494c1.053,2.358,2.272,4.717,3.547,7.075,1.33,2.358,2.6,4.662,3.99,6.965,1.33,2.3,2.549,4.607,3.713,6.965h.111c1.164-2.413,2.383-4.771,3.6-7.075s2.494-4.607,3.768-6.91,2.494-4.662,3.713-6.91a.932.932,0,0,1,.333-.548,1.065,1.065,0,0,1,.721-.11H69.492a.511.511,0,0,1,.61.384C70.157,33.4,70.047,33.619,69.936,33.729Z" fill="#ff61f6"/>
        <path id="Path_109" data-name="Path 109" d="M95.539,91.588A27.8,27.8,0,0,1,83.624,89.12a19.253,19.253,0,0,1-8.368-7.459c-2.051-3.346-3.048-7.514-3.048-12.5a22.344,22.344,0,0,1,3.048-11.572,22.9,22.9,0,0,1,8.811-8.5A28.588,28.588,0,0,1,98.088,45.9a10,10,0,0,1,1.164.055c.5.055,1.053.055,1.718.11V28.738c0-.384.166-.6.554-.6h11.249a.5.5,0,0,1,.554.384v52.32c0,.987.056,2.084.111,3.291.111,1.152.166,2.249.222,3.181a.89.89,0,0,1-.554.878,42.65,42.65,0,0,1-9.033,2.632A49.366,49.366,0,0,1,95.539,91.588Zm5.431-10.969V56.489a14.312,14.312,0,0,0-1.5-.274c-.609-.055-1.219-.11-1.829-.11a13.779,13.779,0,0,0-6.262,1.426,12.387,12.387,0,0,0-4.71,4.058,12.063,12.063,0,0,0-1.829,6.965,15.142,15.142,0,0,0,.942,5.649A10.705,10.705,0,0,0,88.279,78.1a9.6,9.6,0,0,0,3.768,2.194,14.649,14.649,0,0,0,4.6.713c.831,0,1.607-.055,2.327-.11A4.895,4.895,0,0,0,100.969,80.62Z" fill="#ff61f6"/>
      </g>
    </g>
    <text id="Adobe_XD" data-name="Adobe XD" transform="translate(133 1420)" fill="#3f3d56" font-size="28" font-family="Arial-BoldMT, Arial" font-weight="700"><tspan x="0" y="0">Adobe XD</tspan></text>
  </g>
</svg>
