<svg xmlns="http://www.w3.org/2000/svg" xmlns:xlink="http://www.w3.org/1999/xlink" width="70" height="70" viewBox="0 0 70 70">
  <defs>
    <clipPath id="clip-path">
      <rect id="Rectangle_219" data-name="Rectangle 219" width="70" height="70" transform="translate(215 582)" fill="#fff" stroke="#707070" stroke-width="1"/>
    </clipPath>
  </defs>
  <g id="Mask_Group_14" data-name="Mask Group 14" transform="translate(-215 -582)" clip-path="url(#clip-path)">
    <g id="facebook-iconsvg" transform="translate(212.854 581.305)">
      <path id="Path_159" data-name="Path 159" d="M42.828,70.639c-.347.014-.57.042-.792.042-4.751,0-9.488-.014-14.239.014-.667,0-.847-.181-.847-.847q.021-16.587.014-33.187V35.7H19.309V23.894h.75c2.084,0,4.167-.014,6.251.014.528,0,.667-.153.667-.667-.028-3.1-.028-6.21,0-9.307A13.666,13.666,0,0,1,28.339,7.7,11.862,11.862,0,0,1,34.9,2.028,20.653,20.653,0,0,1,42.161.736C46.19.681,50.218.708,54.247.695c.375,0,.681-.014.681.514q-.021,5.73-.014,11.461a1.131,1.131,0,0,1-.069.264H54.08c-2.5,0-5-.014-7.5,0a3.635,3.635,0,0,0-3.348,1.848,2.673,2.673,0,0,0-.361,1.306c-.042,2.362,0,4.723-.028,7.085,0,.556.167.708.708.708,3.473-.028,6.946-.014,10.419-.014h1.014c-.486,3.973-.959,7.863-1.445,11.794H42.828C42.828,47.343,42.828,58.956,42.828,70.639Z"/>
    </g>
  </g>
</svg>
