<svg xmlns="http://www.w3.org/2000/svg" xmlns:xlink="http://www.w3.org/1999/xlink" width="70" height="70" viewBox="0 0 70 70">
  <defs>
    <clipPath id="clip-path">
      <rect id="Rectangle_218" data-name="Rectangle 218" width="70" height="70" transform="translate(115 484)" fill="#fff" stroke="#707070" stroke-width="1"/>
    </clipPath>
  </defs>
  <g id="Mask_Group_12" data-name="Mask Group 12" transform="translate(-115 -484)" clip-path="url(#clip-path)">
    <g id="github-icon" transform="translate(115 484)">
      <path id="Path_155" data-name="Path 155" d="M65.3,18.288A34.848,34.848,0,0,0,52.568,5.55,34.233,34.233,0,0,0,35,.856,34.237,34.237,0,0,0,17.432,5.55,34.844,34.844,0,0,0,4.694,18.288,34.236,34.236,0,0,0,0,35.855,34.014,34.014,0,0,0,6.676,56.431,34.279,34.279,0,0,0,23.925,69.077a2.04,2.04,0,0,0,1.823-.319,1.782,1.782,0,0,0,.592-1.367q0-.137-.023-2.461t-.023-4.055l-1.048.181a13.371,13.371,0,0,1-2.529.16A19.27,19.27,0,0,1,19.55,60.9,7.077,7.077,0,0,1,16.5,59.531a5.782,5.782,0,0,1-2-2.8l-.456-1.049A11.388,11.388,0,0,0,12.6,53.356a5.5,5.5,0,0,0-1.982-1.732L10.3,51.4a3.345,3.345,0,0,1-.592-.547,2.5,2.5,0,0,1-.41-.638q-.137-.32.228-.525a2.956,2.956,0,0,1,1.322-.2l.911.136a6.652,6.652,0,0,1,2.256,1.094,7.355,7.355,0,0,1,2.21,2.369,8.033,8.033,0,0,0,2.529,2.849,5.365,5.365,0,0,0,2.985.979,12.96,12.96,0,0,0,2.6-.227A9.064,9.064,0,0,0,26.385,56,7.384,7.384,0,0,1,28.618,51.3a31.2,31.2,0,0,1-4.671-.82,18.6,18.6,0,0,1-4.283-1.778,12.269,12.269,0,0,1-3.669-3.053A14.673,14.673,0,0,1,13.6,40.867a22.755,22.755,0,0,1-.934-6.836,13.292,13.292,0,0,1,3.6-9.388,12.251,12.251,0,0,1,.319-9.3,6.386,6.386,0,0,1,3.919.615,27.4,27.4,0,0,1,3.805,1.755q1.208.728,1.937,1.23a32.913,32.913,0,0,1,17.5,0l1.732-1.093a24.526,24.526,0,0,1,4.192-2.006,5.972,5.972,0,0,1,3.693-.5q2.05,5.15.364,9.3a13.3,13.3,0,0,1,3.6,9.388A23.009,23.009,0,0,1,56.4,40.89a14.1,14.1,0,0,1-2.414,4.785,12.74,12.74,0,0,1-3.692,3.031,18.634,18.634,0,0,1-4.284,1.778,31.172,31.172,0,0,1-4.671.821q2.369,2.05,2.369,6.471V67.39a1.815,1.815,0,0,0,.57,1.367,1.979,1.979,0,0,0,1.8.318A34.274,34.274,0,0,0,63.324,56.43,34.021,34.021,0,0,0,70,35.854,34.264,34.264,0,0,0,65.3,18.288Z"/>
    </g>
  </g>
</svg>
