<svg xmlns="http://www.w3.org/2000/svg" xmlns:xlink="http://www.w3.org/1999/xlink" width="70" height="70" viewBox="0 0 70 70">
  <defs>
    <clipPath id="clip-path">
      <rect id="Rectangle_220" data-name="Rectangle 220" width="70" height="70" transform="translate(115 582)" fill="#fff" stroke="#707070" stroke-width="1"/>
    </clipPath>
  </defs>
  <g id="Mask_Group_13" data-name="Mask Group 13" transform="translate(-115 -582)" clip-path="url(#clip-path)">
    <g id="instagram-icon" transform="translate(113.737 580.749)">
      <path id="Path_156" data-name="Path 156" d="M71.209,36.239c0,4.907-.1,9.828.028,14.735.212,8.686-5.245,15.4-12.2,18.387a22.057,22.057,0,0,1-8.757,1.833c-9.49.014-18.994.141-28.484-.042A20.767,20.767,0,0,1,4.555,62.128,17.6,17.6,0,0,1,1.283,51.679V21.363C1.283,13.114,5.3,7.346,12.437,3.6A21.432,21.432,0,0,1,22.42,1.269c9.208,0,18.43-.056,27.638.028A21.2,21.2,0,0,1,67.571,9.842a17.645,17.645,0,0,1,3.638,10.97Zm-64.723,0V51.75a12.119,12.119,0,0,0,1.734,6.444,15.6,15.6,0,0,0,13.791,7.755c9.462.141,18.937.056,28.413.028A15.414,15.414,0,0,0,57.108,64.5c5.725-2.736,8.926-7.093,8.9-13.635-.056-10.012-.014-20.023-.014-30.035a12.724,12.724,0,0,0-2.482-7.713,15.764,15.764,0,0,0-13.086-6.6c-9.448-.113-18.9-.042-28.343-.028A16.646,16.646,0,0,0,16.23,7.6c-5.189,1.932-10.012,6.825-9.786,14.03C6.613,26.509,6.486,31.374,6.486,36.239Z"/>
      <path id="Path_157" data-name="Path 157" d="M36.324,51.186a16.217,16.217,0,1,1,16.413-16.23A16.333,16.333,0,0,1,36.324,51.186Zm0-5.217A11.008,11.008,0,1,0,25.085,34.956,11.11,11.11,0,0,0,36.324,45.968Z"/>
      <path id="Path_158" data-name="Path 158" d="M54.64,13.819A3.6,3.6,0,1,1,51.2,17.443,3.541,3.541,0,0,1,54.64,13.819Z"/>
    </g>
  </g>
</svg>
