<svg xmlns="http://www.w3.org/2000/svg" xmlns:xlink="http://www.w3.org/1999/xlink" version="1.0" x="0px" y="0px" viewBox="0 0 100 100" enable-background="new 0 0 100 100" xml:space="preserve"><path d="M94.3,51.4c0.2,0.2,0.4,0.3,0.7,0.3c0.5,0,1-0.4,1-1c0-0.2,0-0.3-0.1-0.4l-2.5-9.8c0,0,0-0.1,0-0.1c0,0,0-0.1,0-0.1  c0-0.1-0.1-0.2-0.2-0.3c0,0,0,0,0,0l-7.5-7.5c-0.1-0.1-0.3-0.2-0.5-0.3l-42.5-10c0,0,0,0,0,0c0,0,0,0,0,0c-0.1,0-0.2,0-0.3,0  c0,0-0.1,0-0.1,0c0,0-0.1,0-0.1,0L35,24.6l-6.1-2.1l0.2-0.9c0.1-0.5-0.2-0.9-0.6-1.1l-3.1-1.2c-0.4-0.2-0.9,0-1.1,0.3l-0.8,1  l-0.3-0.1l-1.5-1.9c-0.3-0.3-0.8-0.5-1.2-0.3l-3.2,1.4c-0.4,0.2-0.6,0.5-0.6,0.9v2.1l-4.7,4.7c-0.2,0.2-0.3,0.4-0.3,0.7V30l-6.8,2.3  c-0.5,0.2-0.8,0.7-0.6,1.3L6.6,41c0.1,0.3,0.4,0.6,0.7,0.6l17.1,4.9l1.9,3.7l-9.1,4.6c-0.2,0.1-0.3,0.2-0.4,0.4L9.1,67.7  c-0.2,0.4-0.2,0.9,0.2,1.2l5,5c0.2,0.2,0.5,0.3,0.8,0.3c0.3,0,0.6-0.2,0.7-0.4l4.9-7.3l11.2-6.7l4.4,13.1l-6.9,4.6  c-0.2,0.2-0.4,0.4-0.4,0.7c0,0.3,0.1,0.6,0.3,0.8l2.5,2.5c0.2,0.2,0.4,0.3,0.7,0.3h10c0.4,0,0.8-0.3,0.9-0.6l7.3-19.4h8.5l2.2,11  l-6.9,4.6c-0.2,0.2-0.4,0.4-0.4,0.7c0,0.3,0.1,0.6,0.3,0.8l2.5,2.5c0.2,0.2,0.4,0.3,0.7,0.3c0.1,0,0.1,0,0.2,0l12.5-2.5  c0.3-0.1,0.6-0.3,0.7-0.5l2.5-5c0.1-0.1,0.1-0.3,0.1-0.4v-7.6l7.6,7.6l-4.3,4.3c-0.4,0.4-0.4,1,0,1.4l2.5,2.5  c0.2,0.2,0.4,0.3,0.7,0.3h5c0.2,0,0.4-0.1,0.6-0.2l10-7.5c0.4-0.3,0.5-0.9,0.2-1.4L91,65.5l2.2-15.1L94.3,51.4z M6.5,34.4l-0.2-0.6  l1-0.3l0,0.7L6.5,34.4z M19.5,64.8c-0.1,0.1-0.2,0.2-0.3,0.3l-4.3,6.5L11.3,68l6.9-11.6l9-4.5l3.9,5.9L19.5,64.8z M49.1,60.3  l-7.3,19.3h-8.9l-1.3-1.3l6.5-4.3c0.4-0.3,0.5-0.7,0.4-1.1l-5-15c0,0,0-0.1-0.1-0.1c0,0,0-0.1-0.1-0.1l-5-7.4L26.3,46l4.5-3.3  c0.2-0.2,0.4-0.4,0.4-0.7l1-6.9c0.1-0.5-0.3-1.1-0.8-1.1c-0.5-0.1-1.1,0.3-1.1,0.8l-0.9,6.5l-4.4,3.2L8.3,39.9L8,39.1l3.8-0.6  c0.2,0,0.5-0.2,0.6-0.4l1.5-1.9c0.4-0.4,0.3-1.1-0.1-1.4c-0.4-0.4-1.1-0.3-1.4,0.1l-1.3,1.6l-3.7,0.6l-0.3-0.9L8.5,36  c0.4-0.1,0.7-0.5,0.8-1l0-2.2l3.5-1.2c0.4-0.1,0.7-0.5,0.7-0.9v-2.1l4.7-4.7c0.2-0.2,0.3-0.4,0.3-0.7v-1.8l1.9-0.8l1.3,1.6  c0.1,0.1,0.2,0.2,0.4,0.3l-0.2,0.2C21.5,23,21.6,23.6,22,24c0.4,0.3,1.1,0.3,1.4-0.1l0.2-0.3l1.6-2l1.6,0.6l-0.4,2.3l0,0.1  c-0.1,0.5,0.3,1.1,0.8,1.2c0.1,0,0.1,0,0.2,0c0.5,0,0.9-0.3,1-0.8l0.1-0.4l6.1,2.1c0.2,0.1,0.4,0.1,0.6,0l7-2.3l11.2,8.1v14.9  L49.1,60.3z M71.5,73l-2.2,4.4l-11.5,2.3l-1.3-1.3l6.5-4.3c0.3-0.2,0.5-0.6,0.4-1l-2.3-11.3h8.5l1.8,1.9V73z M91.5,48.1L89,65.5  c0,0.2,0,0.5,0.2,0.7l4.5,6.7l-9,6.7h-4.3l-1.5-1.5l4.3-4.3c0.4-0.4,0.4-1,0-1.4l-10-10L70.9,60l0,0l-6.8-7.3l1.4-10.1l5.3-3.4  c0.5-0.3,0.6-0.9,0.3-1.4c-0.3-0.5-0.9-0.6-1.4-0.3L64,41.1c-0.2,0.2-0.4,0.4-0.4,0.7L62,52.9c0,0.3,0.1,0.6,0.3,0.8l5.6,6H60h-8.6  l4-11.9c0-0.1,0.1-0.2,0.1-0.3V31.9c0-0.3-0.2-0.6-0.4-0.8l-8-5.8l37.4,8.8l7,7V48.1z"></path><path d="M19.5,28.3l-1.8-1c-0.5-0.3-1.1-0.1-1.3,0.4l-1.2,2c-0.3,0.5-0.1,1.1,0.4,1.4c0.2,0.1,0.3,0.1,0.5,0.1  c0.3,0,0.7-0.2,0.9-0.5l0.7-1.1l1,0.5c0.5,0.3,1.1,0.1,1.4-0.4S20,28.5,19.5,28.3z"></path></svg>