<svg width="57" height="55" viewBox="0 0 57 55" fill="none" xmlns="http://www.w3.org/2000/svg">
<path d="M10.0938 0H46.9062C52.4875 0 57 4.46581 57 9.98932V45.0107C57 50.5342 52.4875 55 46.9062 55H10.0938C4.5125 55 0 50.5342 0 45.0107V9.98932C0 4.46581 4.5125 0 10.0938 0Z" fill="#470137"/>
<path d="M29.9725 14.4551L22.8475 26.0897L30.4475 38.4295C30.495 38.5235 30.5188 38.6175 30.495 38.7115C30.4713 38.8055 30.3763 38.735 30.2338 38.7585H24.795C24.415 38.7585 24.1538 38.735 23.9875 38.5C23.4888 37.5128 22.9663 36.5491 22.4675 35.5619C21.9688 34.5983 21.4225 33.6111 20.8525 32.6004C20.2825 31.5897 19.7125 30.579 19.1425 29.5448H19.095C18.5963 30.5555 18.05 31.5662 17.5038 32.5769C16.9575 33.5876 16.4113 34.5983 15.8888 35.5854C15.3425 36.5726 14.7963 37.5833 14.25 38.547C14.155 38.782 13.965 38.8055 13.7038 38.8055H8.47879C8.38379 38.8055 8.31254 38.8525 8.31254 38.735C8.28879 38.641 8.31254 38.547 8.36004 38.4765L15.7463 26.4893L8.55004 14.4316C8.47879 14.3376 8.45504 14.2436 8.50254 14.1966C8.55004 14.126 8.64504 14.1025 8.74004 14.1025H14.1313C14.25 14.1025 14.3688 14.126 14.4638 14.1495C14.5588 14.1966 14.63 14.2671 14.7013 14.3611C15.1525 15.3718 15.675 16.3825 16.2213 17.3931C16.7913 18.4038 17.3375 19.391 17.9313 20.3782C18.5013 21.3654 19.0238 22.3525 19.5225 23.3632H19.57C20.0688 22.329 20.5913 21.3184 21.1138 20.3312C21.6363 19.344 22.1825 18.3568 22.7288 17.3696C23.275 16.3825 23.7975 15.3718 24.32 14.4081C24.3438 14.3141 24.3913 14.2201 24.4625 14.1731C24.5575 14.126 24.6525 14.1025 24.7713 14.126H29.7825C29.9013 14.1025 30.02 14.1731 30.0438 14.2906C30.0675 14.3141 30.02 14.4081 29.9725 14.4551Z" fill="#FF61F6"/>
<path d="M40.9451 39.2522C39.1876 39.2757 37.4301 38.9231 35.8388 38.1945C34.3426 37.5129 33.1076 36.3846 32.2526 34.9979C31.3738 33.5641 30.9463 31.7778 30.9463 29.6389C30.9226 27.8996 31.3738 26.1838 32.2526 24.6795C33.1551 23.1517 34.4613 21.8825 36.0288 21.0364C37.6913 20.1197 39.6863 19.6731 42.0376 19.6731C42.1563 19.6731 42.3226 19.6731 42.5363 19.6966C42.7501 19.7201 42.9876 19.7201 43.2726 19.7436V12.3163C43.2726 12.1517 43.3438 12.0577 43.5101 12.0577H48.3313C48.4501 12.0342 48.5451 12.1282 48.5688 12.2223C48.5688 12.2458 48.5688 12.2693 48.5688 12.2693V34.6453C48.5688 35.0684 48.5926 35.5385 48.6163 36.0556C48.6638 36.5492 48.6876 37.0193 48.7113 37.4188C48.7113 37.5834 48.6401 37.7244 48.4738 37.7949C47.2388 38.312 45.9326 38.6881 44.6026 38.9231C43.3913 39.1347 42.1801 39.2522 40.9451 39.2522ZM43.2726 34.5513V24.2094C43.0588 24.1624 42.8451 24.1154 42.6313 24.0919C42.3701 24.0684 42.1088 24.0449 41.8476 24.0449C40.9213 24.0449 39.9951 24.2329 39.1638 24.656C38.3563 25.0556 37.6676 25.6432 37.1451 26.3953C36.6226 27.1475 36.3613 28.1582 36.3613 29.3804C36.3376 30.203 36.4801 31.0257 36.7651 31.8013C37.0026 32.4359 37.3588 33 37.8338 33.4701C38.2851 33.8932 38.8313 34.2223 39.4488 34.4103C40.0901 34.6218 40.7551 34.7158 41.4201 34.7158C41.7763 34.7158 42.1088 34.6923 42.4176 34.6688C42.7263 34.6923 42.9876 34.6453 43.2726 34.5513Z" fill="#FF61F6"/>
</svg>
